<?xml version="1.0" encoding="UTF-8" standalone="no"?>
<!-- Created with Inkscape (http://www.inkscape.org/) -->

<svg
   width="107mm"
   height="150mm"
   viewBox="0 0 107 150"
   version="1.1"
   id="svg1415"
   inkscape:version="1.2.2 (b0a8486541, 2022-12-01)"
   sodipodi:docname="cryptopartywien24_back.svg"
   xml:space="preserve"
   inkscape:export-filename="cryptopartywien24_back.png"
   inkscape:export-xdpi="150"
   inkscape:export-ydpi="150"
   xmlns:inkscape="http://www.inkscape.org/namespaces/inkscape"
   xmlns:sodipodi="http://sodipodi.sourceforge.net/DTD/sodipodi-0.dtd"
   xmlns="http://www.w3.org/2000/svg"
   xmlns:svg="http://www.w3.org/2000/svg"><sodipodi:namedview
     id="namedview1417"
     pagecolor="#ffffff"
     bordercolor="#000000"
     borderopacity="0.25"
     inkscape:showpageshadow="2"
     inkscape:pageopacity="0.0"
     inkscape:pagecheckerboard="0"
     inkscape:deskcolor="#d1d1d1"
     inkscape:document-units="mm"
     showgrid="false"
     inkscape:zoom="1.9616282"
     inkscape:cx="178.6781"
     inkscape:cy="401.7071"
     inkscape:window-width="1920"
     inkscape:window-height="1011"
     inkscape:window-x="0"
     inkscape:window-y="0"
     inkscape:window-maximized="1"
     inkscape:current-layer="layer1"
     showguides="true"><sodipodi:guide
       position="105.99756,126.12023"
       orientation="1,0"
       id="guide4197"
       inkscape:locked="false" /><sodipodi:guide
       position="105.74726,148.9983"
       orientation="0,-1"
       id="guide4199"
       inkscape:locked="false" /><sodipodi:guide
       position="98.367227,0.99821977"
       orientation="0,-1"
       id="guide4201"
       inkscape:locked="false" /><sodipodi:guide
       position="0.99720351,149.5989"
       orientation="1,0"
       id="guide4203"
       inkscape:locked="false" /><sodipodi:guide
       position="9.9993322,138.30698"
       orientation="1,0"
       id="guide4244"
       inkscape:locked="false" /><sodipodi:guide
       position="96.000123,142.24475"
       orientation="1,0"
       id="guide4246"
       inkscape:locked="false" /><sodipodi:guide
       position="1.1838667,11.000401"
       orientation="0,-1"
       id="guide4248"
       inkscape:locked="false" /><sodipodi:guide
       position="8.637469,140.0044"
       orientation="0,-1"
       id="guide4252"
       inkscape:locked="false" /><sodipodi:guide
       position="35.333292,112.00359"
       orientation="0,-1"
       id="guide4254"
       inkscape:locked="false" /><sodipodi:guide
       position="26.567096,101.9998"
       orientation="0,-1"
       id="guide4323"
       inkscape:locked="false" /><sodipodi:guide
       position="74.00351,146.78275"
       orientation="1,0"
       id="guide6306"
       inkscape:locked="false" /><sodipodi:guide
       position="63.998277,146.82615"
       orientation="1,0"
       id="guide6308"
       inkscape:locked="false" /><sodipodi:guide
       position="49.715157,72.986305"
       orientation="0,-1"
       id="guide7045"
       inkscape:locked="false" /><sodipodi:guide
       position="50.33318,62.998628"
       orientation="0,-1"
       id="guide7047"
       inkscape:locked="false" /><sodipodi:guide
       position="32.928387,43.989967"
       orientation="0,-1"
       id="guide8880"
       inkscape:locked="false" /><sodipodi:guide
       position="31.099664,34.000552"
       orientation="0,-1"
       id="guide8884"
       inkscape:locked="false" /></sodipodi:namedview><defs
     id="defs1412"><rect
       x="131.60799"
       y="476.04886"
       width="6.7926702"
       height="66.284111"
       id="rect14719" /><rect
       x="-204.55588"
       y="79.110153"
       width="302.54745"
       height="83.656479"
       id="rect8633" /></defs><g
     inkscape:label="Layer 1"
     inkscape:groupmode="layer"
     id="layer1"
     style="display:inline"><rect
       style="fill:#000000;stroke-width:0.0121001;stroke-linecap:square;stroke-linejoin:bevel"
       id="rect3453"
       x="0"
       y="-1.7763568e-15"
       width="107"
       height="150" /><text
       xml:space="preserve"
       style="font-style:normal;font-variant:normal;font-weight:normal;font-stretch:normal;font-size:3.175px;font-family:'Noto Mono';-inkscape-font-specification:'Noto Mono';fill:#fe00ff;fill-opacity:1;stroke-width:0.0119063;stroke-linecap:square;stroke-linejoin:bevel"
       x="9.9843111"
       y="12.388449"
       id="text8689"><tspan
         sodipodi:role="line"
         style="font-size:3.175px;stroke-width:0.0119063"
         x="9.9843111"
         y="12.388449"
         id="tspan9516" /></text><text
       xml:space="preserve"
       style="font-style:normal;font-variant:normal;font-weight:normal;font-stretch:normal;font-size:3.175px;font-family:'Noto Mono';-inkscape-font-specification:'Noto Mono';white-space:pre;inline-size:88.9274;display:inline;fill:#ff009c;fill-opacity:1;stroke-width:0.0119063;stroke-linecap:square;stroke-linejoin:bevel"
       x="-21.615999"
       y="162.91635"
       id="text14711"
       transform="translate(31.68137,-73.502271)"><tspan
         x="-21.615999"
         y="162.91635"
         id="tspan570">Wir treffen uns regelmäßig, um Antworten
</tspan><tspan
         x="-21.615999"
         y="166.8851"
         id="tspan572">auf all diese Fragen zu teilen und uns </tspan><tspan
         x="-21.615999"
         y="170.85385"
         id="tspan574">gegenseitig beim Installieren und Verwenden </tspan><tspan
         x="-21.615999"
         y="174.8226"
         id="tspan576">von Apps, Betriebssystemen, usw. zu helfen. </tspan><tspan
         x="-21.615999"
         y="178.79135"
         id="tspan578">Und natürlich auch um Party zu machen.</tspan></text><path
       style="fill:#ff009c;fill-opacity:1;stroke-width:0.0566452"
       d="m 96.189067,31.708196 -0.01255,6.206543 -4.718417,0.01436 -4.71841,0.01435 v -3.115176 -3.115175 h -6.346077 -6.346078 v -3.114851 -3.114852 h 1.571323 1.571324 l 0.01519,1.557426 0.01519,1.557426 1.58652,0.01491 1.586519,0.01491 v -1.572344 -1.572345 h 1.572236 1.572227 v 1.572345 1.572344 l 1.586519,-0.01491 1.586519,-0.01491 0.01518,-1.547962 0.01518,-1.547961 4.730085,-3.38e-4 4.730086,-3.37e-4 -0.01256,6.206543 z m -6.30493,0.03296 v 3.114851 h 1.572226 1.572226 v -3.114852 -3.114851 h -1.572226 -1.572226 z"
       id="path5474"
       sodipodi:nodetypes="ccccccccccccccccccccccccccccccccccccccc" /><path
       style="fill:#ff009c;fill-opacity:1;stroke-width:0.0566452"
       d="m 74.05532,16.237279 0.01255,-6.206543 4.718417,-0.01436 4.71841,-0.01435 v 3.115176 3.115175 h 6.346077 6.346078 v 3.114851 3.114852 h -1.571323 -1.571324 l -0.01519,-1.557426 -0.01519,-1.557426 -1.58652,-0.01491 -1.586519,-0.01491 v 1.572344 1.572345 H 88.27855 86.706323 v -1.572345 -1.572344 l -1.586519,0.01491 -1.586519,0.01491 -0.01518,1.547962 -0.01518,1.547961 -4.730085,3.38e-4 -4.730086,3.37e-4 0.01256,-6.206543 z m 6.30493,-0.03296 v -3.114851 h -1.572226 -1.572226 v 3.114852 3.114851 h 1.572226 1.572226 z"
       id="path5578"
       sodipodi:nodetypes="ccccccccccccccccccccccccccccccccccccccc" /><text
       xml:space="preserve"
       style="font-size:3.175px;fill:#fe00ff;fill-opacity:1;stroke-width:0.0119063;stroke-linecap:square;stroke-linejoin:bevel"
       x="9.8669586"
       y="12.287744"
       id="text6617"><tspan
         sodipodi:role="line"
         id="tspan6615"
         style="font-style:normal;font-variant:normal;font-weight:normal;font-stretch:normal;font-family:'Noto Mono';-inkscape-font-specification:'Noto Mono';fill:#fe00ff;fill-opacity:1;stroke-width:0.0119063"
         x="9.8669586"
         y="12.287744">- Wie sichere ich meinen</tspan><tspan
         sodipodi:role="line"
         style="font-style:normal;font-variant:normal;font-weight:normal;font-stretch:normal;font-family:'Noto Mono';-inkscape-font-specification:'Noto Mono';fill:#fe00ff;fill-opacity:1;stroke-width:0.0119063"
         x="9.8669586"
         y="16.278057"
         id="tspan6619">  Computer / mein Handy ab?</tspan><tspan
         sodipodi:role="line"
         style="font-style:normal;font-variant:normal;font-weight:normal;font-stretch:normal;font-family:'Noto Mono';-inkscape-font-specification:'Noto Mono';fill:#fe00ff;fill-opacity:1;stroke-width:0.0119063"
         x="9.8669586"
         y="20.26837"
         id="tspan6621" /><tspan
         sodipodi:role="line"
         style="font-style:normal;font-variant:normal;font-weight:normal;font-stretch:normal;font-family:'Noto Mono';-inkscape-font-specification:'Noto Mono';fill:#fe00ff;fill-opacity:1;stroke-width:0.0119063"
         x="9.8669586"
         y="24.258682"
         id="tspan6623">- Mit welchen Apps kann ich</tspan><tspan
         sodipodi:role="line"
         style="font-style:normal;font-variant:normal;font-weight:normal;font-stretch:normal;font-family:'Noto Mono';-inkscape-font-specification:'Noto Mono';fill:#fe00ff;fill-opacity:1;stroke-width:0.0119063"
         x="9.8669586"
         y="28.248995"
         id="tspan6625">  mich sicher im Internet</tspan><tspan
         sodipodi:role="line"
         style="font-style:normal;font-variant:normal;font-weight:normal;font-stretch:normal;font-family:'Noto Mono';-inkscape-font-specification:'Noto Mono';fill:#fe00ff;fill-opacity:1;stroke-width:0.0119063"
         x="9.8669586"
         y="32.239307"
         id="tspan6627">  bewegen und kommunizieren?</tspan><tspan
         sodipodi:role="line"
         style="font-style:normal;font-variant:normal;font-weight:normal;font-stretch:normal;font-family:'Noto Mono';-inkscape-font-specification:'Noto Mono';fill:#fe00ff;fill-opacity:1;stroke-width:0.0119063"
         x="9.8669586"
         y="36.229622"
         id="tspan6629" /><tspan
         sodipodi:role="line"
         style="font-style:normal;font-variant:normal;font-weight:normal;font-stretch:normal;font-family:'Noto Mono';-inkscape-font-specification:'Noto Mono';fill:#fe00ff;fill-opacity:1;stroke-width:0.0119063"
         x="9.8669586"
         y="40.219933"
         id="tspan6631">- Was kann ich tun, um mich</tspan><tspan
         sodipodi:role="line"
         style="font-style:normal;font-variant:normal;font-weight:normal;font-stretch:normal;font-family:'Noto Mono';-inkscape-font-specification:'Noto Mono';fill:#fe00ff;fill-opacity:1;stroke-width:0.0119063"
         x="9.8669586"
         y="44.210247"
         id="tspan6633">  vor Werbetrackern und anderer</tspan><tspan
         sodipodi:role="line"
         style="font-style:normal;font-variant:normal;font-weight:normal;font-stretch:normal;font-family:'Noto Mono';-inkscape-font-specification:'Noto Mono';fill:#fe00ff;fill-opacity:1;stroke-width:0.0119063"
         x="9.8669586"
         y="48.200562"
         id="tspan6635">  Massenüberwachung zu schützen?</tspan><tspan
         sodipodi:role="line"
         style="font-style:normal;font-variant:normal;font-weight:normal;font-stretch:normal;font-family:'Noto Mono';-inkscape-font-specification:'Noto Mono';fill:#fe00ff;fill-opacity:1;stroke-width:0.0119063"
         x="9.8669586"
         y="52.190872"
         id="tspan6637" /><tspan
         sodipodi:role="line"
         style="font-style:normal;font-variant:normal;font-weight:normal;font-stretch:normal;font-family:'Noto Mono';-inkscape-font-specification:'Noto Mono';fill:#fe00ff;fill-opacity:1;stroke-width:0.0119063"
         x="9.8669586"
         y="56.181187"
         id="tspan6639">- Gibt es Alternativen zu den großen</tspan><tspan
         sodipodi:role="line"
         style="font-style:normal;font-variant:normal;font-weight:normal;font-stretch:normal;font-family:'Noto Mono';-inkscape-font-specification:'Noto Mono';fill:#fe00ff;fill-opacity:1;stroke-width:0.0119063"
         x="9.8669586"
         y="60.171497"
         id="tspan6641">  Überwachungskapitalismusplattformen?</tspan><tspan
         sodipodi:role="line"
         style="font-style:normal;font-variant:normal;font-weight:normal;font-stretch:normal;font-family:'Noto Mono';-inkscape-font-specification:'Noto Mono';fill:#fe00ff;fill-opacity:1;stroke-width:0.0119063"
         x="9.8669586"
         y="64.161812"
         id="tspan6643" /><tspan
         sodipodi:role="line"
         style="font-style:normal;font-variant:normal;font-weight:normal;font-stretch:normal;font-family:'Noto Mono';-inkscape-font-specification:'Noto Mono';fill:#fe00ff;fill-opacity:1;stroke-width:0.0119063"
         x="9.8669586"
         y="68.152122"
         id="tspan6645">- Wie wirken sich aktuelle Tech-Trends</tspan><tspan
         sodipodi:role="line"
         style="font-style:normal;font-variant:normal;font-weight:normal;font-stretch:normal;font-family:'Noto Mono';-inkscape-font-specification:'Noto Mono';fill:#fe00ff;fill-opacity:1;stroke-width:0.0119063"
         x="9.8669586"
         y="72.142441"
         id="tspan6647">  auf meine Privatsphäre aus? (LLMs/KI,</tspan><tspan
         sodipodi:role="line"
         style="font-style:normal;font-variant:normal;font-weight:normal;font-stretch:normal;font-family:'Noto Mono';-inkscape-font-specification:'Noto Mono';fill:#fe00ff;fill-opacity:1;stroke-width:0.0119063"
         x="9.8669586"
         y="76.132751"
         id="tspan6649">  IoT, Cloud, SaaS, Blockchain, etc.)</tspan></text><text
       xml:space="preserve"
       style="font-size:3.175px;display:inline;fill:#fe00ff;fill-opacity:1;stroke-width:0.0119063;stroke-linecap:square;stroke-linejoin:bevel"
       x="10.108171"
       y="118.92738"
       id="text6617-7"><tspan
         sodipodi:role="line"
         style="font-style:normal;font-variant:normal;font-weight:normal;font-stretch:normal;font-size:3.175px;font-family:'Noto Mono';-inkscape-font-specification:'Noto Mono';fill:#fe00ff;fill-opacity:1;stroke-width:0.0119063"
         x="10.108171"
         y="118.92738"
         id="tspan8082">Aktuelle Termine und weitere</tspan><tspan
         sodipodi:role="line"
         style="font-style:normal;font-variant:normal;font-weight:normal;font-stretch:normal;font-size:3.175px;font-family:'Noto Mono';-inkscape-font-specification:'Noto Mono';fill:#fe00ff;fill-opacity:1;stroke-width:0.0119063"
         x="10.108171"
         y="122.91769"
         id="tspan14149">Informationen finden sich</tspan><tspan
         sodipodi:role="line"
         style="font-style:normal;font-variant:normal;font-weight:normal;font-stretch:normal;font-size:3.175px;font-family:'Noto Mono';-inkscape-font-specification:'Noto Mono';fill:#fe00ff;fill-opacity:1;stroke-width:0.0119063"
         x="10.108171"
         y="126.90801"
         id="tspan501">auf unserer Website:</tspan></text><path
       id="Selection"
       fill="none"
       stroke="#000000"
       stroke-width="0.16917"
       d="m 74.033783,116.52185 c 0,0 6.132056,0 6.132056,0 0,0 0,6.13205 0,6.13205 0,0 -6.132056,0 -6.132056,0 0,0 0,-6.13205 0,-6.13205 z m 7.877677,0 c 0,0 0.895189,0 0.895189,0 0,0 0,1.74563 0,1.74563 0,0 0.895191,0 0.895191,0 0,0 0,-0.89519 0,-0.89519 0,0 2.640812,0 2.640812,0 0,0 0,-0.85044 0,-0.85044 0,0 1.745621,0 1.745621,0 0,0 0,1.74563 0,1.74563 0,0 0.850432,0 0.850432,0 0,0 0,0.85042 0,0.85042 0,0 -0.850432,0 -0.850432,0 0,0 0,1.79039 0,1.79039 0,0 0.850432,0 0.850432,0 0,0 0,2.64081 0,2.64081 0,0 0.89519,0 0.89519,0 0,0 0,1.74562 0,1.74562 0,0 0.89519,0 0.89519,0 0,0 0,-1.74562 0,-1.74562 0,0 0.850431,0 0.850431,0 0,0 0,0.85043 0,0.85043 0,0 0.895191,0 0.895191,0 0,0 0,-0.85043 0,-0.85043 0,0 0.89519,0 0.89519,0 0,0 0,0.85043 0,0.85043 0,0 -0.89519,0 -0.89519,0 0,0 0,1.74563 0,1.74563 0,0 -0.895191,0 -0.895191,0 0,0 0,-0.85044 0,-0.85044 0,0 -0.850431,0 -0.850431,0 0,0 0,0.85044 0,0.85044 0,0 -1.79038,0 -1.79038,0 0,0 0,0.89518 0,0.89518 0,0 -0.850432,0 -0.850432,0 0,0 0,0.89519 0,0.89519 0,0 1.745622,0 1.745622,0 0,0 0,-0.89519 0,-0.89519 0,0 3.536002,0 3.536002,0 0,0 0,0.89519 0,0.89519 0,0 -0.89519,0 -0.89519,0 0,0 0,1.74563 0,1.74563 0,0 -0.895191,0 -0.895191,0 0,0 0,-0.89519 0,-0.89519 0,0 -0.850431,0 -0.850431,0 0,0 0,0.89519 0,0.89519 0,0 -0.89519,0 -0.89519,0 0,0 0,0.89518 0,0.89518 0,0 3.536002,0 3.536002,0 0,0 0,0.85043 0,0.85043 0,0 -0.89519,0 -0.89519,0 0,0 0,1.79038 0,1.79038 0,0 0.89519,0 0.89519,0 0,0 0,-0.89518 0,-0.89518 0,0 1.745621,0 1.745621,0 0,0 0,-1.74563 0,-1.74563 0,0 -0.89519,0 -0.89519,0 0,0 0,-0.89518 0,-0.89518 0,0 -0.850431,0 -0.850431,0 0,0 0,-0.89519 0,-0.89519 0,0 2.640812,0 2.640812,0 0,0 0,4.43118 0,4.43118 0,0 -2.640812,0 -2.640812,0 0,0 0,1.74563 0,1.74563 0,0 -0.89519,0 -0.89519,0 0,0 0,1.74562 0,1.74562 0,0 0.89519,0 0.89519,0 0,0 0,-0.85043 0,-0.85043 0,0 0.850431,0 0.850431,0 0,0 0,-0.89519 0,-0.89519 0,0 1.790381,0 1.790381,0 0,0 0,1.74562 0,1.74562 0,0 -0.895191,0 -0.895191,0 0,0 0,0.89519 0,0.89519 0,0 0.895191,0 0.895191,0 0,0 0,0.89519 0,0.89519 0,0 -2.640812,0 -2.640812,0 0,0 0,-0.89519 0,-0.89519 0,0 -3.536002,0 -3.536002,0 0,0 0,0.89519 0,0.89519 0,0 -3.491243,0 -3.491243,0 0,0 0,-1.79038 0,-1.79038 0,0 -0.89519,0 -0.89519,0 0,0 0,1.79038 0,1.79038 0,0 -0.895191,0 -0.895191,0 0,0 0,-3.536 0,-3.536 0,0 -0.850431,0 -0.850431,0 0,0 0,-1.74563 0,-1.74563 0,0 -0.895191,0 -0.895191,0 0,0 0,0.85043 0,0.85043 0,0 -0.895189,0 -0.895189,0 0,0 0,2.64082 0,2.64082 0,0 0.895189,0 0.895189,0 0,0 0,-0.85043 0,-0.85043 0,0 0.895191,0 0.895191,0 0,0 0,1.74562 0,1.74562 0,0 -0.895191,0 -0.895191,0 0,0 0,0.89519 0,0.89519 0,0 -1.745621,0 -1.745621,0 0,0 0,-4.4312 0,-4.4312 0,0 0.850432,0 0.850432,0 0,0 0,-0.85043 0,-0.85043 0,0 -0.850432,0 -0.850432,0 0,0 0,-1.79038 0,-1.79038 0,0 -4.431193,0 -4.431193,0 0,0 0,-0.85043 0,-0.85043 0,0 -0.850431,0 -0.850431,0 0,0 0,-1.79037 0,-1.79037 0,0 1.745622,0 1.745622,0 0,0 0,-0.85044 0,-0.85044 0,0 0.895191,0 0.895191,0 0,0 0,-0.89519 0,-0.89519 0,0 -0.895191,0 -0.895191,0 0,0 0,-0.89518 0,-0.89518 0,0 -0.895191,0 -0.895191,0 0,0 0,1.79037 0,1.79037 0,0 -1.745622,0 -1.745622,0 0,0 0,3.49124 0,3.49124 0,0 -0.85043,0 -0.85043,0 0,0 0,-4.38643 0,-4.38643 0,0 0.85043,0 0.85043,0 0,0 0,-0.89518 0,-0.89518 0,0 0.895191,0 0.895191,0 0,0 0,-0.85044 0,-0.85044 0,0 0.850431,0 0.850431,0 0,0 0,-0.89519 0,-0.89519 0,0 -1.745622,0 -1.745622,0 0,0 0,0.89519 0,0.89519 0,0 -0.85043,0 -0.85043,0 0,0 0,-1.74562 0,-1.74562 0,0 4.386434,0 4.386434,0 0,0 0,1.74562 0,1.74562 0,0 -0.895191,0 -0.895191,0 0,0 0,0.85044 0,0.85044 0,0 1.745621,0 1.745621,0 0,0 0,-0.85044 0,-0.85044 0,0 0.895192,0 0.895192,0 0,0 0,-0.89519 0,-0.89519 0,0 -0.895192,0 -0.895192,0 0,0 0,-0.85043 0,-0.85043 0,0 4.431193,0 4.431193,0 0,0 0,0.85043 0,0.85043 0,0 -0.895191,0 -0.895191,0 0,0 0,1.74563 0,1.74563 0,0 0.895191,0 0.895191,0 0,0 0,-0.85044 0,-0.85044 0,0 3.491243,0 3.491243,0 0,0 0,1.74562 0,1.74562 0,0 0.89519,0 0.89519,0 0,0 0,-0.89518 0,-0.89518 0,0 0.850432,0 0.850432,0 0,0 0,-0.85044 0,-0.85044 0,0 -0.850432,0 -0.850432,0 0,0 0,-0.89519 0,-0.89519 0,0 -1.745621,0 -1.745621,0 0,0 0,-2.64081 0,-2.64081 0,0 -0.89519,0 -0.89519,0 0,0 0,2.64081 0,2.64081 0,0 -0.895191,0 -0.895191,0 0,0 0,-2.64081 0,-2.64081 0,0 0.895191,0 0.895191,0 0,0 0,-0.85043 0,-0.85043 0,0 -0.895191,0 -0.895191,0 0,0 0,-0.8952 0,-0.8952 0,0 -0.850431,0 -0.850431,0 0,0 0,2.64081 0,2.64081 0,0 -0.895191,0 -0.895191,0 0,0 0,-2.64081 0,-2.64081 0,0 -1.745621,0 -1.745621,0 0,0 0,-0.89519 0,-0.89519 0,0 0.850432,0 0.850432,0 0,0 0,-0.85042 0,-0.85042 0,0 -0.850432,0 -0.850432,0 0,0 0,-0.89519 0,-0.89519 0,0 0.850432,0 0.850432,0 0,0 0,-0.85044 0,-0.85044 z m 7.922435,0 c 0,0 6.176814,0 6.176814,0 0,0 0,6.13205 0,6.13205 0,0 -6.176814,0 -6.176814,0 0,0 0,-6.13205 0,-6.13205 z m -10.518489,0.85044 c 0,0 -4.431193,0 -4.431193,0 0,0 0,4.38643 0,4.38643 0,0 4.431193,0 4.431193,0 0,0 0,-4.38643 0,-4.38643 z m 15.800112,0 c 0,0 -4.386433,0 -4.386433,0 0,0 0,4.38643 0,4.38643 0,0 4.386433,0 4.386433,0 0,0 0,-4.38643 0,-4.38643 z m -8.772866,0.89519 c 0,0 -1.790381,0 -1.790381,0 0,0 0,1.74561 0,1.74561 0,0 0.895191,0 0.895191,0 0,0 0,-0.89519 0,-0.89519 0,0 0.89519,0 0.89519,0 0,0 0,-0.85042 0,-0.85042 z m 1.745621,0 c 0,0 -0.89519,0 -0.89519,0 0,0 0,0.85042 0,0.85042 0,0 0.89519,0 0.89519,0 0,0 0,-0.85042 0,-0.85042 z m -12.308869,0 c 0,0 2.640813,0 2.640813,0 0,0 0,2.28273 0,2.28273 -0.0027,0.3639 -0.05685,0.35718 -0.402836,0.35808 0,0 -2.237977,0 -2.237977,0 0,0 0,-2.64081 0,-2.64081 z m 15.800112,0 c 0,0 2.640812,0 2.640812,0 0,0 0,2.64081 0,2.64081 0,0 -2.282736,0 -2.282736,0 -0.363894,-0.002 -0.357181,-0.0569 -0.358076,-0.40284 0,0 0,-2.23797 0,-2.23797 z m -7.877676,0.85042 c 0,0 -0.895191,0 -0.895191,0 0,0 0,0.89519 0,0.89519 0,0 0.895191,0 0.895191,0 0,0 0,-0.89519 0,-0.89519 z m 3.491243,0 c 0,0 -0.850431,0 -0.850431,0 0,0 0,0.89519 0,0.89519 0,0 -0.89519,0 -0.89519,0 0,0 0,0.8952 0,0.8952 0,0 1.745621,0 1.745621,0 0,0 0,-1.79039 0,-1.79039 z m -6.132055,1.79039 c 0,0 0.850432,0 0.850432,0 0,0 0,1.74561 0,1.74561 0,0 -0.850432,0 -0.850432,0 0,0 0,-1.74561 0,-1.74561 z m 7.027245,0.85043 c 0,0 -0.89519,0 -0.89519,0 0,0 0,1.79038 0,1.79038 0,0 0.89519,0 0.89519,0 0,0 0,-1.79038 0,-1.79038 z m 6.132055,1.79038 c 0,0 0.89519,0 0.89519,0 0,0 0,0.85043 0,0.85043 0,0 0.895191,0 0.895191,0 0,0 0,0.89519 0,0.89519 0,0 -0.895191,0 -0.895191,0 0,0 0,-0.89519 0,-0.89519 0,0 -0.89519,0 -0.89519,0 0,0 0,-0.85043 0,-0.85043 z m -12.308868,0.85043 c 0,0 -0.850432,0 -0.850432,0 0,0 0,0.89519 0,0.89519 0,0 -0.895189,0 -0.895189,0 0,0 0,0.85044 0,0.85044 0,0 1.745621,0 1.745621,0 0,0 0,-1.74563 0,-1.74563 z m 11.458437,0.89519 c 0,0 0.850431,0 0.850431,0 0,0 0,0.85044 0,0.85044 0,0 -0.850431,0 -0.850431,0 0,0 0,-0.85044 0,-0.85044 z m -13.204058,0.85044 c 0,0 -0.895192,0 -0.895192,0 0,0 0,0.89518 0,0.89518 0,0 0.895192,0 0.895192,0 0,0 0,-0.89518 0,-0.89518 z m 5.281623,0 c 0,0 -0.895191,0 -0.895191,0 0,0 0,1.79037 0,1.79037 0,0 0.895191,0 0.895191,0 0,0 0,0.85044 0,0.85044 0,0 0.89519,0 0.89519,0 0,0 0,-0.85044 0,-0.85044 0,0 0.850431,0 0.850431,0 0,0 0,-0.89519 0,-0.89519 0,0 -1.745621,0 -1.745621,0 0,0 0,-0.89518 0,-0.89518 z m -3.536002,0.89518 c 0,0 -1.745621,0 -1.745621,0 0,0 0,0.89519 0,0.89519 0,0 1.745621,0 1.745621,0 0,0 0,-0.89519 0,-0.89519 z m 1.79038,0 c 0,0 -0.895191,0 -0.895191,0 0,0 0,0.89519 0,0.89519 0,0 0.895191,0 0.895191,0 0,0 0,-0.89519 0,-0.89519 z m 10.518488,0 c 0,0 1.790381,0 1.790381,0 0,0 0,0.89519 0,0.89519 0,0 -1.790381,0 -1.790381,0 0,0 0,-0.89519 0,-0.89519 z m -14.054489,0.89519 c 0,0 -1.745622,0 -1.745622,0 0,0 0,0.85044 0,0.85044 0,0 1.745622,0 1.745622,0 0,0 0,-0.85044 0,-0.85044 z m 4.386432,0 c 0,0 -0.850431,0 -0.850431,0 0,0 0,2.64081 0,2.64081 0,0 -0.895191,0 -0.895191,0 0,0 0,0.85043 0,0.85043 0,0 0.895191,0 0.895191,0 0,0 0,0.8952 0,0.8952 0,0 3.491243,0 3.491243,0 0,0 0,-0.8952 0,-0.8952 0,0 -2.640812,0 -2.640812,0 0,0 0,-1.74561 0,-1.74561 0,0 0.895191,0 0.895191,0 0,0 0,-0.89519 0,-0.89519 0,0 -0.895191,0 -0.895191,0 0,0 0,-0.85044 0,-0.85044 z m 6.176814,0 c 0,0 -0.89519,0 -0.89519,0 0,0 0,0.85044 0,0.85044 0,0 0.89519,0 0.89519,0 0,0 0,-0.85044 0,-0.85044 z m -9.668057,0.85044 c 0,0 -0.895189,0 -0.895189,0 0,0 0,0.89519 0,0.89519 0,0 0.895189,0 0.895189,0 0,0 0,-0.89519 0,-0.89519 z m 6.132055,0 c 0,0 -0.850431,0 -0.850431,0 0,0 0,1.79037 0,1.79037 0,0 1.745621,0 1.745621,0 0,0 0,-0.89518 0,-0.89518 0,0 -0.89519,0 -0.89519,0 0,0 0,-0.89519 0,-0.89519 z m -8.772866,0.89519 c 0,0 -1.790382,0 -1.790382,0 0,0 0,0.89518 0,0.89518 0,0 1.790382,0 1.790382,0 0,0 0,-0.89518 0,-0.89518 z m 1.745622,0 c 0,0 -0.895192,0 -0.895192,0 0,0 0,0.89518 0,0.89518 0,0 0.895192,0 0.895192,0 0,0 0,-0.89518 0,-0.89518 z m 1.745621,0 c 0,0 -0.850432,0 -0.850432,0 0,0 0,1.74561 0,1.74561 0,0 0.850432,0 0.850432,0 0,0 0,-1.74561 0,-1.74561 z m 9.668056,1.74561 c 0,0 -2.640811,0 -2.640811,0 0,0 0,2.64081 0,2.64081 0,0 2.640811,0 2.640811,0 0,0 0,-2.64081 0,-2.64081 z m -8.772867,0.8952 c 0,0 -0.895189,0 -0.895189,0 0,0 0,0.89518 0,0.89518 0,0 0.895189,0 0.895189,0 0,0 0,-0.89518 0,-0.89518 z m -8.772866,0 c 0,0 6.132056,0 6.132056,0 0,0 0,6.17681 0,6.17681 0,0 -6.132056,0 -6.132056,0 0,0 0,-6.17681 0,-6.17681 z m 15.800112,0 c 0,0 0.89519,0 0.89519,0 0,0 0,0.89518 0,0.89518 0,0 -0.89519,0 -0.89519,0 0,0 0,-0.89518 0,-0.89518 z m -10.518489,0.89518 c 0,0 -4.431193,0 -4.431193,0 0,0 0,4.38644 0,4.38644 0,0 4.431193,0 4.431193,0 0,0 0,-4.38644 0,-4.38644 z m 7.877677,0 c 0,0 -2.640812,0 -2.640812,0 0,0 0,0.85043 0,0.85043 0,0 0.895191,0 0.895191,0 0,0 0,1.79039 0,1.79039 0,0 0.89519,0 0.89519,0 0,0 0,-0.89519 0,-0.89519 0,0 0.850431,0 0.850431,0 0,0 0,-1.74563 0,-1.74563 z m -11.413679,0.89519 c 0,0 2.640813,0 2.640813,0 0,0 0,2.59606 0,2.59606 0,0 -2.640813,0 -2.640813,0 0,0 0,-2.59606 0,-2.59606 z m 12.308869,0.85044 c 0,0 -0.89519,0 -0.89519,0 0,0 0,2.64081 0,2.64081 0,0 1.745622,0 1.745622,0 0,0 0,-0.89519 0,-0.89519 0,0 2.640811,0 2.640811,0 0,0 0,-1.74562 0,-1.74562 0,0 -0.850431,0 -0.850431,0 0,0 0,0.89519 0,0.89519 0,0 -0.89519,0 -0.89519,0 0,0 0,-0.89519 0,-0.89519 0,0 -0.89519,0 -0.89519,0 0,0 0,0.89519 0,0.89519 0,0 -0.850432,0 -0.850432,0 0,0 0,-0.89519 0,-0.89519 z m 7.027245,0.89519 c 0,0 -0.89519,0 -0.89519,0 0,0 0,0.85043 0,0.85043 0,0 0.89519,0 0.89519,0 0,0 0,-0.85043 0,-0.85043 z m -0.89519,0.85043 c 0,0 -0.850431,0 -0.850431,0 0,0 0,0.89519 0,0.89519 0,0 0.850431,0 0.850431,0 0,0 0,-0.89519 0,-0.89519 z"
       style="fill:#ff009c;fill-opacity:1;stroke:none" /><text
       xml:space="preserve"
       style="font-size:4.23333px;font-family:'Noto Mono';-inkscape-font-specification:'Noto Mono';text-align:center;text-anchor:middle;fill:#fe00ff;fill-opacity:1;stroke:#fe00ff;stroke-width:0.012;stroke-linecap:round;stroke-linejoin:round"
       x="27.535133"
       y="134.1282"
       id="text12501"><tspan
         sodipodi:role="line"
         id="tspan12499"
         style="font-size:4.23333px;fill:#fe00ff;fill-opacity:1;stroke-width:0.012"
         x="27.535133"
         y="134.1282">cryptoparty.at</tspan></text></g></svg>
