<?xml version="1.0" encoding="UTF-8" standalone="no"?>
<!-- Created with Inkscape (http://www.inkscape.org/) -->

<svg
   xmlns:dc="http://purl.org/dc/elements/1.1/"
   xmlns:cc="http://creativecommons.org/ns#"
   xmlns:rdf="http://www.w3.org/1999/02/22-rdf-syntax-ns#"
   xmlns:svg="http://www.w3.org/2000/svg"
   xmlns="http://www.w3.org/2000/svg"
   xmlns:sodipodi="http://sodipodi.sourceforge.net/DTD/sodipodi-0.dtd"
   xmlns:inkscape="http://www.inkscape.org/namespaces/inkscape"
   width="8858.2676"
   height="3543.3069"
   id="svg2"
   version="1.1"
   inkscape:version="0.48.4 r9939"
   sodipodi:docname="Outdoorplakat.svg">
  <defs
     id="defs4" />
  <sodipodi:namedview
     id="base"
     pagecolor="#ffffff"
     bordercolor="#666666"
     borderopacity="1.0"
     inkscape:pageopacity="1"
     inkscape:pageshadow="2"
     inkscape:zoom="0.12374369"
     inkscape:cx="4987.7305"
     inkscape:cy="924.30737"
     inkscape:document-units="px"
     inkscape:current-layer="g3718"
     showgrid="false"
     showguides="true"
     inkscape:guide-bbox="true"
     inkscape:window-width="1855"
     inkscape:window-height="1056"
     inkscape:window-x="65"
     inkscape:window-y="24"
     inkscape:window-maximized="1"
     units="cm">
    <sodipodi:guide
       orientation="0,1"
       position="-2157.6858,202.03051"
       id="guide3036" />
    <sodipodi:guide
       orientation="1,0"
       position="210.11173,3685.0365"
       id="guide3038" />
    <sodipodi:guide
       orientation="1,0"
       position="8654.987,-1155.6145"
       id="guide3040" />
    <sodipodi:guide
       orientation="0,1"
       position="-525.27932,800.04082"
       id="guide3063" />
  </sodipodi:namedview>
  <metadata
     id="metadata7">
    <rdf:RDF>
      <cc:Work
         rdf:about="">
        <dc:format>image/svg+xml</dc:format>
        <dc:type
           rdf:resource="http://purl.org/dc/dcmitype/StillImage" />
        <dc:title />
      </cc:Work>
    </rdf:RDF>
  </metadata>
  <g
     inkscape:groupmode="layer"
     id="layer2"
     inkscape:label="Layer"
     style="display:inline"
     transform="translate(0,3018.8992)">
    <rect
       style="fill:#000000;fill-opacity:1"
       id="rect3803"
       width="8875.2002"
       height="3529.5171"
       x="0"
       y="-3005.1077" />
    <g
       style="display:inline"
       id="g3718"
       transform="matrix(6.5094642,0,0,6.5094642,3976.0618,-6520.6039)">
      <text
         xml:space="preserve"
         style="font-size:21.99999904px;font-style:normal;font-variant:normal;font-weight:bold;font-stretch:normal;text-align:end;line-height:100%;letter-spacing:0px;word-spacing:0px;writing-mode:lr;text-anchor:end;fill:#ed2690;fill-opacity:1;stroke:none;font-family:Tlwg Typist;-inkscape-font-specification:Tlwg Typist Bold"
         x="605.87689"
         y="1026.2701"
         id="use3211"
         sodipodi:linespacing="100%"><tspan
           sodipodi:role="line"
           id="tspan3058">@CryptopartyBLN</tspan><tspan
           sodipodi:role="line"
           id="tspan3060">www.cryptoparty.in/berlin</tspan></text>
      <g
         id="use3213"
         transform="matrix(0.36059908,0,0,0.36059908,628.85715,962.93361)">
        <rect
           id="rect3217"
           height="248"
           width="248"
           y="0"
           x="0"
           style="fill:#ffffff;fill-opacity:1" />
        <g
           id="g3219">
          <path
             id="path3221"
             d="m 8,8 8,0 0,8 -8,0 z m 8,0 8,0 0,8 -8,0 z m 8,0 8,0 0,8 -8,0 z m 8,0 8,0 0,8 -8,0 z m 8,0 8,0 0,8 -8,0 z m 8,0 8,0 0,8 -8,0 z m 8,0 8,0 0,8 -8,0 z m 24,0 8,0 0,8 -8,0 z m 48,0 8,0 0,8 -8,0 z m 8,0 8,0 0,8 -8,0 z m 8,0 8,0 0,8 -8,0 z m 16,0 8,0 0,8 -8,0 z m 8,0 8,0 0,8 -8,0 z m 16,0 8,0 0,8 -8,0 z m 8,0 8,0 0,8 -8,0 z m 8,0 8,0 0,8 -8,0 z m 8,0 8,0 0,8 -8,0 z m 8,0 8,0 0,8 -8,0 z m 8,0 8,0 0,8 -8,0 z m 8,0 8,0 0,8 -8,0 z m -224,8 8,0 0,8 -8,0 z m 48,0 8,0 0,8 -8,0 z m 16,0 8,0 0,8 -8,0 z m 8,0 8,0 0,8 -8,0 z m 16,0 8,0 0,8 -8,0 z m 8,0 8,0 0,8 -8,0 z m 48,0 8,0 0,8 -8,0 z m 32,0 8,0 0,8 -8,0 z m 48,0 8,0 0,8 -8,0 z m -224,8 8,0 0,8 -8,0 z m 16,0 8,0 0,8 -8,0 z m 8,0 8,0 0,8 -8,0 z m 8,0 8,0 0,8 -8,0 z m 16,0 8,0 0,8 -8,0 z m 24,0 8,0 0,8 -8,0 z m 8,0 8,0 0,8 -8,0 z m 8,0 8,0 0,8 -8,0 z m 24,0 8,0 0,8 -8,0 z m 16,0 8,0 0,8 -8,0 z m 32,0 8,0 0,8 -8,0 z m 16,0 8,0 0,8 -8,0 z m 16,0 8,0 0,8 -8,0 z m 8,0 8,0 0,8 -8,0 z m 8,0 8,0 0,8 -8,0 z m 16,0 8,0 0,8 -8,0 z m -224,8 8,0 0,8 -8,0 z m 16,0 8,0 0,8 -8,0 z m 8,0 8,0 0,8 -8,0 z m 8,0 8,0 0,8 -8,0 z m 16,0 8,0 0,8 -8,0 z m 16,0 8,0 0,8 -8,0 z m 8,0 8,0 0,8 -8,0 z m 16,0 8,0 0,8 -8,0 z m 40,0 8,0 0,8 -8,0 z m 8,0 8,0 0,8 -8,0 z m 8,0 8,0 0,8 -8,0 z m 16,0 8,0 0,8 -8,0 z m 16,0 8,0 0,8 -8,0 z m 16,0 8,0 0,8 -8,0 z m 8,0 8,0 0,8 -8,0 z m 8,0 8,0 0,8 -8,0 z m 16,0 8,0 0,8 -8,0 z m -224,8 8,0 0,8 -8,0 z m 16,0 8,0 0,8 -8,0 z m 8,0 8,0 0,8 -8,0 z m 8,0 8,0 0,8 -8,0 z m 16,0 8,0 0,8 -8,0 z m 32,0 8,0 0,8 -8,0 z m 16,0 8,0 0,8 -8,0 z m 8,0 8,0 0,8 -8,0 z m 8,0 8,0 0,8 -8,0 z m 8,0 8,0 0,8 -8,0 z m 16,0 8,0 0,8 -8,0 z m 8,0 8,0 0,8 -8,0 z m 8,0 8,0 0,8 -8,0 z m 8,0 8,0 0,8 -8,0 z m 16,0 8,0 0,8 -8,0 z m 16,0 8,0 0,8 -8,0 z m 8,0 8,0 0,8 -8,0 z m 8,0 8,0 0,8 -8,0 z m 16,0 8,0 0,8 -8,0 z m -224,8 8,0 0,8 -8,0 z m 48,0 8,0 0,8 -8,0 z m 16,0 8,0 0,8 -8,0 z m 16,0 8,0 0,8 -8,0 z m 24,0 8,0 0,8 -8,0 z m 8,0 8,0 0,8 -8,0 z m 8,0 8,0 0,8 -8,0 z m 8,0 8,0 0,8 -8,0 z m 8,0 8,0 0,8 -8,0 z m 40,0 8,0 0,8 -8,0 z m 48,0 8,0 0,8 -8,0 z m -224,8 8,0 0,8 -8,0 z m 8,0 8,0 0,8 -8,0 z m 8,0 8,0 0,8 -8,0 z m 8,0 8,0 0,8 -8,0 z m 8,0 8,0 0,8 -8,0 z m 8,0 8,0 0,8 -8,0 z m 8,0 8,0 0,8 -8,0 z m 16,0 8,0 0,8 -8,0 z m 16,0 8,0 0,8 -8,0 z m 16,0 8,0 0,8 -8,0 z m 16,0 8,0 0,8 -8,0 z m 16,0 8,0 0,8 -8,0 z m 16,0 8,0 0,8 -8,0 z m 16,0 8,0 0,8 -8,0 z m 16,0 8,0 0,8 -8,0 z m 8,0 8,0 0,8 -8,0 z m 8,0 8,0 0,8 -8,0 z m 8,0 8,0 0,8 -8,0 z m 8,0 8,0 0,8 -8,0 z m 8,0 8,0 0,8 -8,0 z m 8,0 8,0 0,8 -8,0 z m -128,8 8,0 0,8 -8,0 z m 8,0 8,0 0,8 -8,0 z m 16,0 8,0 0,8 -8,0 z m 24,0 8,0 0,8 -8,0 z m 8,0 8,0 0,8 -8,0 z m -152,8 8,0 0,8 -8,0 z m 8,0 8,0 0,8 -8,0 z m 8,0 8,0 0,8 -8,0 z m 8,0 8,0 0,8 -8,0 z m 8,0 8,0 0,8 -8,0 z m 16,0 8,0 0,8 -8,0 z m 8,0 8,0 0,8 -8,0 z m 8,0 8,0 0,8 -8,0 z m 8,0 8,0 0,8 -8,0 z m 8,0 8,0 0,8 -8,0 z m 16,0 8,0 0,8 -8,0 z m 16,0 8,0 0,8 -8,0 z m 8,0 8,0 0,8 -8,0 z m 16,0 8,0 0,8 -8,0 z m 24,0 8,0 0,8 -8,0 z m 8,0 8,0 0,8 -8,0 z m 16,0 8,0 0,8 -8,0 z m 16,0 8,0 0,8 -8,0 z m 16,0 8,0 0,8 -8,0 z m -208,8 8,0 0,8 -8,0 z m 24,0 8,0 0,8 -8,0 z m 8,0 8,0 0,8 -8,0 z m 16,0 8,0 0,8 -8,0 z m 8,0 8,0 0,8 -8,0 z m 8,0 8,0 0,8 -8,0 z m 48,0 8,0 0,8 -8,0 z m 8,0 8,0 0,8 -8,0 z m 8,0 8,0 0,8 -8,0 z m 8,0 8,0 0,8 -8,0 z m 8,0 8,0 0,8 -8,0 z m 8,0 8,0 0,8 -8,0 z m 8,0 8,0 0,8 -8,0 z m 8,0 8,0 0,8 -8,0 z m 8,0 8,0 0,8 -8,0 z m 8,0 8,0 0,8 -8,0 z m 32,0 8,0 0,8 -8,0 z m -208,8 8,0 0,8 -8,0 z m 16,0 8,0 0,8 -8,0 z m 16,0 8,0 0,8 -8,0 z m 8,0 8,0 0,8 -8,0 z m 16,0 8,0 0,8 -8,0 z m 16,0 8,0 0,8 -8,0 z m 8,0 8,0 0,8 -8,0 z m 48,0 8,0 0,8 -8,0 z m 16,0 8,0 0,8 -8,0 z m 8,0 8,0 0,8 -8,0 z m -144,8 8,0 0,8 -8,0 z m 32,0 8,0 0,8 -8,0 z m 16,0 8,0 0,8 -8,0 z m 8,0 8,0 0,8 -8,0 z m 8,0 8,0 0,8 -8,0 z m 24,0 8,0 0,8 -8,0 z m 16,0 8,0 0,8 -8,0 z m 48,0 8,0 0,8 -8,0 z m 8,0 8,0 0,8 -8,0 z m 16,0 8,0 0,8 -8,0 z m 16,0 8,0 0,8 -8,0 z m -216,8 8,0 0,8 -8,0 z m 32,0 8,0 0,8 -8,0 z m 8,0 8,0 0,8 -8,0 z m 8,0 8,0 0,8 -8,0 z m 24,0 8,0 0,8 -8,0 z m 16,0 8,0 0,8 -8,0 z m 48,0 8,0 0,8 -8,0 z m 64,0 8,0 0,8 -8,0 z m 8,0 8,0 0,8 -8,0 z m -192,8 8,0 0,8 -8,0 z m 8,0 8,0 0,8 -8,0 z m 8,0 8,0 0,8 -8,0 z m 8,0 8,0 0,8 -8,0 z m 24,0 8,0 0,8 -8,0 z m 8,0 8,0 0,8 -8,0 z m 8,0 8,0 0,8 -8,0 z m 16,0 8,0 0,8 -8,0 z m 8,0 8,0 0,8 -8,0 z m 8,0 8,0 0,8 -8,0 z m 8,0 8,0 0,8 -8,0 z m 16,0 8,0 0,8 -8,0 z m 8,0 8,0 0,8 -8,0 z m 8,0 8,0 0,8 -8,0 z m 8,0 8,0 0,8 -8,0 z m 16,0 8,0 0,8 -8,0 z m 16,0 8,0 0,8 -8,0 z m 32,0 8,0 0,8 -8,0 z m -216,8 8,0 0,8 -8,0 z m 8,0 8,0 0,8 -8,0 z m 8,0 8,0 0,8 -8,0 z m 16,0 8,0 0,8 -8,0 z m 8,0 8,0 0,8 -8,0 z m 8,0 8,0 0,8 -8,0 z m 8,0 8,0 0,8 -8,0 z m 16,0 8,0 0,8 -8,0 z m 24,0 8,0 0,8 -8,0 z m 8,0 8,0 0,8 -8,0 z m 8,0 8,0 0,8 -8,0 z m 16,0 8,0 0,8 -8,0 z m 32,0 8,0 0,8 -8,0 z m 16,0 8,0 0,8 -8,0 z m 16,0 8,0 0,8 -8,0 z m 8,0 8,0 0,8 -8,0 z m -208,8 8,0 0,8 -8,0 z m 8,0 8,0 0,8 -8,0 z m 16,0 8,0 0,8 -8,0 z m 32,0 8,0 0,8 -8,0 z m 8,0 8,0 0,8 -8,0 z m 8,0 8,0 0,8 -8,0 z m 8,0 8,0 0,8 -8,0 z m 16,0 8,0 0,8 -8,0 z m 8,0 8,0 0,8 -8,0 z m 24,0 8,0 0,8 -8,0 z m 16,0 8,0 0,8 -8,0 z m 24,0 8,0 0,8 -8,0 z m 8,0 8,0 0,8 -8,0 z m 8,0 8,0 0,8 -8,0 z m 8,0 8,0 0,8 -8,0 z m 24,0 8,0 0,8 -8,0 z m -216,8 8,0 0,8 -8,0 z m 8,0 8,0 0,8 -8,0 z m 16,0 8,0 0,8 -8,0 z m 16,0 8,0 0,8 -8,0 z m 8,0 8,0 0,8 -8,0 z m 48,0 8,0 0,8 -8,0 z m 16,0 8,0 0,8 -8,0 z m 24,0 8,0 0,8 -8,0 z m 8,0 8,0 0,8 -8,0 z m 16,0 8,0 0,8 -8,0 z m 24,0 8,0 0,8 -8,0 z m 16,0 8,0 0,8 -8,0 z m 8,0 8,0 0,8 -8,0 z m -208,8 8,0 0,8 -8,0 z m 24,0 8,0 0,8 -8,0 z m 8,0 8,0 0,8 -8,0 z m 24,0 8,0 0,8 -8,0 z m 8,0 8,0 0,8 -8,0 z m 8,0 8,0 0,8 -8,0 z m 8,0 8,0 0,8 -8,0 z m 48,0 8,0 0,8 -8,0 z m 8,0 8,0 0,8 -8,0 z m 8,0 8,0 0,8 -8,0 z m 8,0 8,0 0,8 -8,0 z m 8,0 8,0 0,8 -8,0 z m 16,0 8,0 0,8 -8,0 z m 8,0 8,0 0,8 -8,0 z m 8,0 8,0 0,8 -8,0 z m 16,0 8,0 0,8 -8,0 z m 16,0 8,0 0,8 -8,0 z m -224,8 8,0 0,8 -8,0 z m 16,0 8,0 0,8 -8,0 z m 8,0 8,0 0,8 -8,0 z m 16,0 8,0 0,8 -8,0 z m 8,0 8,0 0,8 -8,0 z m 24,0 8,0 0,8 -8,0 z m 16,0 8,0 0,8 -8,0 z m 8,0 8,0 0,8 -8,0 z m 24,0 8,0 0,8 -8,0 z m 8,0 8,0 0,8 -8,0 z m 8,0 8,0 0,8 -8,0 z m 24,0 8,0 0,8 -8,0 z m 8,0 8,0 0,8 -8,0 z m 8,0 8,0 0,8 -8,0 z m 8,0 8,0 0,8 -8,0 z m 24,0 8,0 0,8 -8,0 z m -208,8 8,0 0,8 -8,0 z m 72,0 8,0 0,8 -8,0 z m 16,0 8,0 0,8 -8,0 z m 24,0 8,0 0,8 -8,0 z m 8,0 8,0 0,8 -8,0 z m 32,0 8,0 0,8 -8,0 z m 8,0 8,0 0,8 -8,0 z m 24,0 8,0 0,8 -8,0 z m 8,0 8,0 0,8 -8,0 z m 24,0 8,0 0,8 -8,0 z m -216,8 8,0 0,8 -8,0 z m 16,0 8,0 0,8 -8,0 z m 8,0 8,0 0,8 -8,0 z m 24,0 8,0 0,8 -8,0 z m 8,0 8,0 0,8 -8,0 z m 8,0 8,0 0,8 -8,0 z m 8,0 8,0 0,8 -8,0 z m 16,0 8,0 0,8 -8,0 z m 48,0 8,0 0,8 -8,0 z m 16,0 8,0 0,8 -8,0 z m 8,0 8,0 0,8 -8,0 z m 8,0 8,0 0,8 -8,0 z m 8,0 8,0 0,8 -8,0 z m 8,0 8,0 0,8 -8,0 z m 8,0 8,0 0,8 -8,0 z m 16,0 8,0 0,8 -8,0 z m 8,0 8,0 0,8 -8,0 z m 8,0 8,0 0,8 -8,0 z m -160,8 8,0 0,8 -8,0 z m 16,0 8,0 0,8 -8,0 z m 16,0 8,0 0,8 -8,0 z m 8,0 8,0 0,8 -8,0 z m 8,0 8,0 0,8 -8,0 z m 16,0 8,0 0,8 -8,0 z m 16,0 8,0 0,8 -8,0 z m 16,0 8,0 0,8 -8,0 z m 32,0 8,0 0,8 -8,0 z m 8,0 8,0 0,8 -8,0 z m 8,0 8,0 0,8 -8,0 z m 8,0 8,0 0,8 -8,0 z m 8,0 8,0 0,8 -8,0 z m -224,8 8,0 0,8 -8,0 z m 8,0 8,0 0,8 -8,0 z m 8,0 8,0 0,8 -8,0 z m 8,0 8,0 0,8 -8,0 z m 8,0 8,0 0,8 -8,0 z m 8,0 8,0 0,8 -8,0 z m 8,0 8,0 0,8 -8,0 z m 16,0 8,0 0,8 -8,0 z m 8,0 8,0 0,8 -8,0 z m 32,0 8,0 0,8 -8,0 z m 8,0 8,0 0,8 -8,0 z m 8,0 8,0 0,8 -8,0 z m 16,0 8,0 0,8 -8,0 z m 8,0 8,0 0,8 -8,0 z m 8,0 8,0 0,8 -8,0 z m 8,0 8,0 0,8 -8,0 z m 16,0 8,0 0,8 -8,0 z m 16,0 8,0 0,8 -8,0 z m 8,0 8,0 0,8 -8,0 z m 8,0 8,0 0,8 -8,0 z m -208,8 8,0 0,8 -8,0 z m 48,0 8,0 0,8 -8,0 z m 24,0 8,0 0,8 -8,0 z m 24,0 8,0 0,8 -8,0 z m 8,0 8,0 0,8 -8,0 z m 16,0 8,0 0,8 -8,0 z m 8,0 8,0 0,8 -8,0 z m 16,0 8,0 0,8 -8,0 z m 8,0 8,0 0,8 -8,0 z m 8,0 8,0 0,8 -8,0 z m 32,0 8,0 0,8 -8,0 z m -192,8 8,0 0,8 -8,0 z m 16,0 8,0 0,8 -8,0 z m 8,0 8,0 0,8 -8,0 z m 8,0 8,0 0,8 -8,0 z m 16,0 8,0 0,8 -8,0 z m 16,0 8,0 0,8 -8,0 z m 32,0 8,0 0,8 -8,0 z m 16,0 8,0 0,8 -8,0 z m 24,0 8,0 0,8 -8,0 z m 24,0 8,0 0,8 -8,0 z m 8,0 8,0 0,8 -8,0 z m 8,0 8,0 0,8 -8,0 z m 8,0 8,0 0,8 -8,0 z m 8,0 8,0 0,8 -8,0 z m 16,0 8,0 0,8 -8,0 z m 8,0 8,0 0,8 -8,0 z m -216,8 8,0 0,8 -8,0 z m 16,0 8,0 0,8 -8,0 z m 8,0 8,0 0,8 -8,0 z m 8,0 8,0 0,8 -8,0 z m 16,0 8,0 0,8 -8,0 z m 16,0 8,0 0,8 -8,0 z m 64,0 8,0 0,8 -8,0 z m 16,0 8,0 0,8 -8,0 z m 40,0 8,0 0,8 -8,0 z m 16,0 8,0 0,8 -8,0 z m 8,0 8,0 0,8 -8,0 z m 8,0 8,0 0,8 -8,0 z m 8,0 8,0 0,8 -8,0 z m -224,8 8,0 0,8 -8,0 z m 16,0 8,0 0,8 -8,0 z m 8,0 8,0 0,8 -8,0 z m 8,0 8,0 0,8 -8,0 z m 16,0 8,0 0,8 -8,0 z m 16,0 8,0 0,8 -8,0 z m 8,0 8,0 0,8 -8,0 z m 16,0 8,0 0,8 -8,0 z m 8,0 8,0 0,8 -8,0 z m 24,0 8,0 0,8 -8,0 z m 32,0 8,0 0,8 -8,0 z m 24,0 8,0 0,8 -8,0 z m 8,0 8,0 0,8 -8,0 z m 8,0 8,0 0,8 -8,0 z m 8,0 8,0 0,8 -8,0 z m 8,0 8,0 0,8 -8,0 z m 8,0 8,0 0,8 -8,0 z m -216,8 8,0 0,8 -8,0 z m 48,0 8,0 0,8 -8,0 z m 16,0 8,0 0,8 -8,0 z m 8,0 8,0 0,8 -8,0 z m 16,0 8,0 0,8 -8,0 z m 24,0 8,0 0,8 -8,0 z m 40,0 8,0 0,8 -8,0 z m 8,0 8,0 0,8 -8,0 z m 8,0 8,0 0,8 -8,0 z m 16,0 8,0 0,8 -8,0 z m 16,0 8,0 0,8 -8,0 z m 16,0 8,0 0,8 -8,0 z m -216,8 8,0 0,8 -8,0 z m 8,0 8,0 0,8 -8,0 z m 8,0 8,0 0,8 -8,0 z m 8,0 8,0 0,8 -8,0 z m 8,0 8,0 0,8 -8,0 z m 8,0 8,0 0,8 -8,0 z m 8,0 8,0 0,8 -8,0 z m 16,0 8,0 0,8 -8,0 z m 8,0 8,0 0,8 -8,0 z m 16,0 8,0 0,8 -8,0 z m 32,0 8,0 0,8 -8,0 z m 8,0 8,0 0,8 -8,0 z m 8,0 8,0 0,8 -8,0 z m 16,0 8,0 0,8 -8,0 z m 16,0 8,0 0,8 -8,0 z m 16,0 8,0 0,8 -8,0 z m 8,0 8,0 0,8 -8,0 z m 8,0 8,0 0,8 -8,0 z m 8,0 8,0 0,8 -8,0 z"
             style="fill:#000000"
             inkscape:connector-curvature="0" />
        </g>
      </g>
    </g>
  </g>
  <g
     inkscape:label="Layer 1"
     inkscape:groupmode="layer"
     id="layer1"
     transform="translate(0,2490.9492)"
     style="display:inline">
    <g
       transform="matrix(2.7988888,0,0,2.7988888,46.507476,165.24874)"
       style="display:inline"
       id="g3116">
      <polygon
         transform="matrix(0.79730852,0,0,0.81530463,53.878884,24.748553)"
         id="polygon5320"
         points="68.12,126.734 96.785,126.734 96.785,98.034 68.12,98.034 39.394,98.034 39.394,69.367 39.394,40.698 68.12,40.698 96.785,40.698 96.785,11.993 68.12,11.993 39.394,11.993 10.729,11.993 10.729,40.698 10.729,69.367 10.729,98.034 10.729,126.734 39.394,126.734 "
         style="fill:#d900ff" />
      <path
         id="path5322"
         d="m 176.75609,34.526501 h -22.85485 v 23.40332 23.373968 23.372341 23.39924 h 22.85485 v -23.39924 h 22.90428 V 81.335586 h 22.85485 V 57.929821 l 0,0 v -23.40332 h -22.85485 -22.90428 z m 22.90348,23.40332 V 81.273623 H 176.75529 V 57.929821 h 22.90428 l 0,0 z"
         inkscape:connector-curvature="0"
         style="fill:#d900ff" />
      <rect
         id="rect5324"
         height="23.399244"
         width="22.854849"
         y="104.67612"
         x="199.65958"
         style="fill:#d900ff" />
      <polygon
         transform="matrix(0.79730852,0,0,0.81530463,53.878884,24.748553)"
         id="polygon5326"
         points="240.173,98.034 268.838,98.034 268.899,98.034 297.564,98.034 297.564,126.734 326.229,126.734 326.229,98.034 326.229,69.367 326.229,40.698 326.229,11.993 297.564,11.993 297.564,40.698 297.564,69.33 268.899,69.33 268.899,40.665 268.838,40.665 268.838,11.993 240.173,11.993 240.173,40.665 240.173,40.698 240.173,69.33 "
         style="fill:#d900ff" />
      <path
         id="path5328"
         d="m 359.69055,34.526501 h -22.85166 v 23.40332 23.373968 23.372341 23.39924 h 22.85166 v -23.39924 h 22.90827 22.85485 V 81.273623 57.929821 57.902916 34.526501 h -22.85485 -22.90827 z m 22.90827,46.747122 H 359.69055 V 57.929821 h 22.90827 v 23.343802 z"
         inkscape:connector-curvature="0"
         style="fill:#d900ff" />
      <polygon
         transform="matrix(0.79730852,0,0,0.81530463,53.878884,24.748553)"
         id="polygon5330"
         points="527.007,69.367 527.007,40.698 555.68,40.698 555.68,11.993 527.007,11.993 498.294,11.993 469.621,11.993 469.621,40.698 498.294,40.698 498.338,40.698 498.338,69.367 498.338,98.034 498.338,126.734 527.007,126.734 527.007,98.034 "
         style="fill:#d900ff" />
      <path
         id="path5332"
         d="m 361.49486,151.44934 h -22.85485 v 23.36011 23.37071 23.41065 23.39435 h 22.85485 v -23.39435 h 22.90508 v 23.39435 h 22.85565 v -23.39435 -23.41147 -23.36989 -23.36011 h -22.85565 -22.90508 l 0,0 z m 22.90508,46.73163 h -22.90508 v -23.37071 h 22.90508 v 23.37071 z"
         inkscape:connector-curvature="0"
         style="fill:#d900ff" />
      <path
         id="path5334"
         d="m 270.03002,151.44934 h -22.85644 v 23.36011 23.37071 23.41065 23.39435 h 22.85644 v -23.39435 h 22.89711 22.85804 v -23.41147 -23.36989 -0.031 -23.32913 h -22.85804 -22.89711 z m 22.89711,46.73163 h -22.89711 v -23.37071 h 22.89711 v 23.37071 z"
         inkscape:connector-curvature="0"
         style="fill:#d900ff" />
      <polygon
         transform="matrix(0.79730852,0,0,0.81530463,53.878884,24.748553)"
         id="polygon5336"
         points="643.993,212.721 643.993,184.056 672.658,184.056 672.658,155.403 643.993,155.403 615.265,155.403 586.6,155.403 586.6,184.056 615.265,184.056 615.328,184.056 615.328,212.721 615.328,241.435 615.328,270.13 643.993,270.13 643.993,241.435 "
         style="fill:#d900ff" />
      <path
         id="path5338"
         d="m 452.96768,151.44934 h -22.85405 v 23.36011 23.37071 23.41065 23.39435 h 22.85405 v -23.39435 h 22.90269 v -23.37804 h 22.85484 v -23.36989 -0.0326 -23.3601 h -22.85484 -22.90269 z m 22.90269,23.39354 v 23.33809 h -22.90269 v -23.37071 h 22.90269 v 0.0326 z"
         inkscape:connector-curvature="0"
         style="fill:#d900ff" />
      <rect
         id="rect5340"
         height="23.394352"
         width="22.854849"
         y="221.59163"
         x="475.87039"
         style="fill:#d900ff" />
      <polygon
         transform="matrix(0.79730852,0,0,0.81530463,53.878884,24.748553)"
         id="polygon5342"
         points="701.323,212.721 701.323,241.435 729.988,241.435 730.047,241.435 758.712,241.435 758.712,270.13 787.377,270.13 787.377,241.435 787.377,212.721 787.377,184.056 787.377,155.403 758.712,155.403 758.712,184.056 758.712,212.721 730.047,212.721 730.047,184.018 729.988,184.018 729.988,155.403 701.323,155.403 701.323,184.018 701.323,184.056 "
         style="fill:#d900ff" />
      <rect
         id="rect5344"
         height="23.402504"
         width="26.302412"
         y="104.45763"
         x="543.0047"
         style="fill:#ff0098" />
      <rect
         id="rect5346"
         height="24.024244"
         width="22.854849"
         y="104.05112"
         x="612.23889"
         style="fill:#ff0098" />
      <rect
         id="rect5348"
         height="23.443888"
         width="22.854849"
         y="104.42358"
         x="566.46606"
         style="fill:#ff0098" />
      <rect
         id="rect5350"
         height="23.488529"
         width="22.854052"
         y="104.36362"
         x="520.81946"
         style="fill:#ff0098" />
      <rect
         id="rect5352"
         height="23.403318"
         width="22.854849"
         y="81.208397"
         x="612.23889"
         style="fill:#ff0098" />
      <rect
         id="rect5354"
         height="23.403318"
         width="26.390383"
         y="81.208397"
         x="587.74249"
         style="fill:#ff0098" />
      <rect
         id="rect5356"
         height="24.158173"
         width="22.854849"
         y="103.91719"
         x="657.9071"
         style="fill:#ff0098" />
      <rect
         id="rect5358"
         height="23.403318"
         width="23.613777"
         y="81.208397"
         x="657.14819"
         style="fill:#ff0098" />
      <rect
         id="rect5360"
         height="23.403318"
         width="23.99127"
         y="81.208397"
         x="633.91583"
         style="fill:#ff0098" />
      <rect
         id="rect5362"
         height="81.88546"
         width="22.854849"
         y="41.654823"
         x="566.52917"
         style="fill:#ff0098" />
      <rect
         id="rect5364"
         height="23.626534"
         width="22.854052"
         y="80.985184"
         x="520.81946"
         style="fill:#ff0098" />
      <rect
         id="rect5366"
         height="23.400873"
         width="22.854849"
         y="57.712135"
         x="566.52917"
         style="fill:#ff0098" />
      <rect
         id="rect5368"
         height="54.472301"
         width="22.854052"
         y="56.997849"
         x="520.81946"
         style="fill:#ff0098" />
      <rect
         id="rect5370"
         height="23.715004"
         width="22.854849"
         y="34.310444"
         x="566.52917"
         style="fill:#ff0098" />
      <rect
         id="rect5372"
         height="23.402504"
         width="23.345921"
         y="34.310444"
         x="543.67432"
         style="fill:#ff0098" />
      <rect
         id="rect5374"
         height="23.402504"
         width="23.836195"
         y="34.310444"
         x="520.81946"
         style="fill:#ff0098" />
      <rect
         id="rect5376"
         height="23.395981"
         width="23.928135"
         y="221.37149"
         x="177.90659"
         style="fill:#ff0098" />
      <rect
         id="rect5378"
         height="23.899427"
         width="22.858038"
         y="221.08655"
         x="110.03492"
         style="fill:#ff0098" />
      <rect
         id="rect5380"
         height="23.994129"
         width="22.853254"
         y="220.77087"
         x="155.7478"
         style="fill:#ff0098" />
      <rect
         id="rect5382"
         height="23.173382"
         width="22.854849"
         y="221.59163"
         x="201.4559"
         style="fill:#ff0098" />
      <rect
         id="rect5384"
         height="23.400059"
         width="25.635958"
         y="198.09047"
         x="110.03492"
         style="fill:#ff0098" />
      <rect
         id="rect5386"
         height="23.400059"
         width="23.612463"
         y="198.09047"
         x="132.89296"
         style="fill:#ff0098" />
      <rect
         id="rect5388"
         height="25.414658"
         width="22.854052"
         y="219.57132"
         x="64.369072"
         style="fill:#ff0098" />
      <rect
         id="rect5390"
         height="23.400059"
         width="25.379433"
         y="198.09047"
         x="64.369072"
         style="fill:#ff0098" />
      <rect
         id="rect5392"
         height="23.400059"
         width="25.007801"
         y="198.09047"
         x="87.222328"
         style="fill:#ff0098" />
      <rect
         id="rect5394"
         height="24.789019"
         width="22.853254"
         y="196.70151"
         x="155.7478"
         style="fill:#ff0098" />
      <rect
         id="rect5396"
         height="25.294096"
         width="22.854849"
         y="197.08032"
         x="201.4559"
         style="fill:#ff0098" />
      <rect
         id="rect5398"
         height="23.402504"
         width="22.853254"
         y="174.62437"
         x="155.7478"
         style="fill:#ff0098" />
      <rect
         id="rect5400"
         height="23.402504"
         width="22.854849"
         y="174.62437"
         x="201.4559"
         style="fill:#ff0098" />
      <rect
         id="rect5402"
         height="26.297724"
         width="22.853254"
         y="151.23083"
         x="155.7478"
         style="fill:#ff0098" />
      <rect
         id="rect5404"
         height="23.393536"
         width="27.779343"
         y="151.23083"
         x="176.70702"
         style="fill:#ff0098" />
      <rect
         id="rect5406"
         height="25.792648"
         width="22.854849"
         y="151.23083"
         x="201.4559"
         style="fill:#ff0098" />
    </g>
    <flowRoot
       xml:space="preserve"
       id="flowRoot3080"
       style="font-size:36.55027008px;font-style:normal;font-variant:normal;font-weight:bold;font-stretch:normal;text-align:center;line-height:120.00000477%;letter-spacing:0px;word-spacing:0px;writing-mode:lr-tb;text-anchor:middle;fill:#ffffff;fill-opacity:1;stroke:none;font-family:Ubuntu Mono;-inkscape-font-specification:Ubuntu Mono Bold"
       transform="matrix(17.097765,0,0,17.097765,-167.38873,-3212.1172)"><flowRegion
         id="flowRegion3082"><rect
           id="rect3084"
           width="405.07117"
           height="462.64987"
           x="66.670067"
           y="64.261818"
           style="font-size:36.55027008px;font-style:normal;font-variant:normal;font-weight:bold;font-stretch:normal;text-align:center;line-height:120.00000477%;writing-mode:lr-tb;text-anchor:middle;fill:#ffffff;fill-opacity:1;font-family:Ubuntu Mono;-inkscape-font-specification:Ubuntu Mono Bold" /></flowRegion><flowPara
         id="flowPara3048">Nichts zu verbergen?</flowPara><flowPara
         id="flowPara3050"></flowPara><flowPara
         id="flowPara3052">Sicher?</flowPara></flowRoot>  </g>
</svg>
