<?xml version="1.0" encoding="utf-8"?>
<!-- Generator: Adobe Illustrator 16.0.0, SVG Export Plug-In . SVG Version: 6.00 Build 0)  -->
<!DOCTYPE svg PUBLIC "-//W3C//DTD SVG 1.1//EN" "http://www.w3.org/Graphics/SVG/1.1/DTD/svg11.dtd">
<svg version="1.1" xmlns="http://www.w3.org/2000/svg" xmlns:xlink="http://www.w3.org/1999/xlink" x="0px" y="0px"
	 width="595.28px" height="841.89px" viewBox="0 0 595.28 841.89" enable-background="new 0 0 595.28 841.89" xml:space="preserve">
<g id="Flyer4">
	<g id="BG">
		<g id="BigKey" opacity="0.08">
			<rect x="419.26" y="540.882" width="60.145" height="60.091"/>
			<rect x="418.26" y="420.827" width="61.145" height="60.083"/>
			<polygon points="479.469,781.215 479.469,721.132 539.821,721.132 539.821,661.055 539.821,600.973 539.821,541.005 
				539.821,540.882 539.821,480.91 539.321,480.9 539.821,420.827 479.164,420.827 479.164,480.9 479.164,480.91 479.164,540.882 
				479.164,541.005 479.164,600.973 479.164,661.055 479.164,721.132 479.404,721.132 479.404,661.055 419.26,661.055 
				419.26,721.132 419.325,721.132 419.325,781.215 419.26,781.215 419.26,841.292 479.904,841.292 479.904,781.215 
				479.164,781.215 479.164,841.292 539.321,841.292 539.321,781.215 			"/>
			<rect x="538.984" y="781.215" width="56.296" height="60.077"/>
			<rect x="538.807" y="661.055" width="56.474" height="60.077"/>
		</g>
	</g>
	<g id="Text">
		<text transform="matrix(1 0 0 1 319.0664 552.4434)" font-family="'EurostileLTStd-Demi'" font-size="14">What</text>
		<text transform="matrix(1 0 0 1 319.1914 618.9824)" font-family="'EurostileLTStd-Demi'" font-size="14">Where</text>
		<text transform="matrix(1 0 0 1 319.1914 630.084)"><tspan x="0" y="0" font-family="'EurostileLTStd'" font-size="7">Currently events are taking place in numerous locations around the world.</tspan><tspan x="0" y="8.4" font-family="'EurostileLTStd'" font-size="7">Visit the wiki page to learn where and when events near you are happening </tspan><tspan x="0" y="16.8" font-family="'EurostileLTStd'" font-size="7">and how to start one in your area.</tspan></text>
		<text transform="matrix(1 0 0 1 319.0664 563.7197)"><tspan x="0" y="0" font-family="'EurostileLTStd'" font-size="7">CryptoParty is a decentralized, global initiative to introduce the most basic </tspan><tspan x="0" y="8.399" font-family="'EurostileLTStd'" font-size="7">cryptography programs and the fundamental concepts of their operation to </tspan><tspan x="0" y="16.8" font-family="'EurostileLTStd'" font-size="7">the general public.</tspan></text>
		<text transform="matrix(1 0 0 1 319.1914 684.4492)" font-family="'EurostileLTStd-Demi'" font-size="14">Why</text>
		<text transform="matrix(1 0 0 1 319.1914 695.334)"><tspan x="0" y="0" font-family="'EurostileLTStd'" font-size="7">Attend a CryptoParty to learn and teach how to use basic cryptography tools. </tspan><tspan x="0" y="8.4" font-family="'EurostileLTStd'" font-size="7">A CryptoParty is free, public and fun. People bring their computers, mobile </tspan><tspan x="0" y="16.801" font-family="'EurostileLTStd'" font-size="7">devices, and a willingness to learn! </tspan></text>
		<text transform="matrix(1 0 0 1 318.1914 750.0957)" font-family="'EurostileLTStd-Demi'" font-size="14">How</text>
		<text transform="matrix(1 0 0 1 318.7227 761.166)"><tspan x="0" y="0" font-family="'EurostileLTStd'" font-size="7">Throw a party. All you need is a time, a date and a location. Visit the wiki page </tspan><tspan x="0" y="8.4" font-family="'EurostileLTStd'" font-size="7">below to find out more.</tspan></text>
		<text transform="matrix(1 0 0 1 308.1406 810.6455)"><tspan x="0" y="0" font-family="'EurostileLTStd-Ex2'" font-size="7">CRYPTOPARTY INFO: http://www.cryptoparty.in</tspan><tspan x="0" y="8.75" font-family="'EurostileLTStd-Ex2'" font-size="7">TWITTER: #CryptoParty </tspan></text>
		<text transform="matrix(1 0 0 1 505.4063 528.291)" opacity="0.8" font-family="'NewsGothicMT-Italic'" font-size="9">Party like it’s 1984!</text>
	</g>
	<g id="Logo">
		<polygon fill="#A0519F" points="307.886,420.97 297.641,420.97 297.641,431.994 297.641,443.003 297.641,454.012 297.641,465.033 
			307.886,465.033 318.917,465.033 329.925,465.033 329.925,454.012 318.917,454.012 307.886,454.012 307.886,443.003 
			307.886,431.994 318.917,431.994 329.925,431.994 329.925,420.97 318.917,420.97 		"/>
		<path fill="#A0519F" d="M351.942,420.97h-11.01v11.024v11.009v11.009v11.021h11.01v-11.021h11.031v-10.994h11.008v-11.023l0,0
			V420.97h-11.008H351.942z M362.974,431.994v10.994h-11.032v-10.994H362.974L362.974,431.994z"/>
		<rect x="362.974" y="454.012" fill="#A0519F" width="11.008" height="11.021"/>
		<polygon fill="#A0519F" points="407.03,431.994 407.03,442.988 396.022,442.988 396.022,431.98 395.999,431.98 395.999,420.97 
			384.99,420.97 384.99,431.98 384.99,431.994 384.99,442.988 384.99,454.012 395.999,454.012 396.022,454.012 407.03,454.012 
			407.03,465.033 418.038,465.033 418.038,454.012 418.038,443.003 418.038,431.994 418.038,420.97 407.03,420.97 		"/>
		<path fill="#A0519F" d="M440.053,420.97h-11.007v11.024v11.009v11.009v11.021h11.007v-11.021h11.034h11.009v-11.023v-10.994
			v-0.014V420.97h-11.009H440.053z M451.087,442.988h-11.034v-10.994h11.034V442.988z"/>
		<polygon fill="#A0519F" points="484.117,420.97 473.105,420.97 473.105,431.994 484.117,431.994 484.133,431.994 484.133,443.003 
			484.133,454.012 484.133,465.033 495.144,465.033 495.144,454.012 495.144,443.003 495.144,431.994 506.154,431.994 
			506.154,420.97 495.144,420.97 		"/>
		<path fill="#A0519F" d="M440.923,476.043h-11.009v11.004v11.008v11.027v11.02h11.009v-11.02h11.032v11.02h11.008v-11.02v-11.027
			v-11.008v-11.004h-11.008H440.923L440.923,476.043z M451.955,498.055h-11.032v-11.008h11.032V498.055z"/>
		<path fill="#A0519F" d="M396.868,476.043h-11.01v11.004v11.008v11.027v11.02h11.01v-11.02h11.027h11.01v-11.027v-11.008v-0.016
			v-10.988h-11.01H396.868z M407.896,498.055h-11.027v-11.008h11.027V498.055z"/>
		<polygon fill="#A0519F" points="529.037,476.043 518.028,476.043 518.028,487.047 529.037,487.047 529.062,487.047 
			529.062,498.055 529.062,509.082 529.062,520.102 540.069,520.102 540.069,509.082 540.069,498.055 540.069,487.047 
			551.077,487.047 551.077,476.043 540.069,476.043 		"/>
		<path fill="#A0519F" d="M484.981,476.043h-11.009v11.004v11.008v11.027v11.02h11.009v-11.02h11.03V498.07h11.009v-11.008v-0.016
			v-11.004h-11.009H484.981L484.981,476.043z M496.012,487.063v10.992h-11.03v-11.008h11.03V487.063z"/>
		<rect x="496.012" y="509.082" fill="#A0519F" width="11.009" height="11.02"/>
		<polygon fill="#A0519F" points="584.125,476.043 584.125,487.047 584.125,498.055 573.116,498.055 573.116,487.032 
			573.094,487.032 573.094,476.043 562.085,476.043 562.085,487.032 562.085,487.047 562.085,498.055 562.085,509.082 
			573.094,509.082 573.116,509.082 584.125,509.082 584.125,520.102 595.134,520.102 595.134,509.082 595.134,498.055 
			595.134,487.047 595.134,476.043 		"/>
		<rect x="528.67" y="453.909" fill="#ED2690" width="11.009" height="11.022"/>
		<rect x="561.694" y="454.012" fill="#ED2690" width="11.01" height="11.021"/>
		<rect x="539.679" y="454.012" fill="#ED2690" width="11.008" height="11.021"/>
		<rect x="517.662" y="454.012" fill="#ED2690" width="11.008" height="11.021"/>
		<rect x="561.694" y="442.958" fill="#ED2690" width="11.01" height="11.024"/>
		<rect x="550.687" y="442.958" fill="#ED2690" width="11.008" height="11.024"/>
		<rect x="583.691" y="454.012" fill="#ED2690" width="11.009" height="11.021"/>
		<rect x="583.691" y="442.958" fill="#ED2690" width="11.009" height="11.024"/>
		<rect x="572.684" y="442.958" fill="#ED2690" width="11.008" height="11.024"/>
		<rect x="539.679" y="442.958" fill="#ED2690" width="11.008" height="11.024"/>
		<rect x="517.662" y="442.958" fill="#ED2690" width="11.008" height="11.024"/>
		<rect x="539.679" y="431.891" fill="#ED2690" width="11.008" height="11.022"/>
		<rect x="517.662" y="431.891" fill="#ED2690" width="11.008" height="11.022"/>
		<rect x="539.679" y="420.868" fill="#ED2690" width="11.008" height="11.023"/>
		<rect x="528.67" y="420.868" fill="#ED2690" width="11.009" height="11.023"/>
		<rect x="517.662" y="420.868" fill="#ED2690" width="11.008" height="11.023"/>
		<rect x="352.831" y="508.979" fill="#ED2690" width="11.008" height="11.02"/>
		<rect x="319.806" y="509.082" fill="#ED2690" width="11.01" height="11.02"/>
		<rect x="341.823" y="509.082" fill="#ED2690" width="11.008" height="11.02"/>
		<rect x="363.839" y="509.082" fill="#ED2690" width="11.008" height="11.02"/>
		<rect x="319.806" y="498.013" fill="#ED2690" width="11.01" height="11.021"/>
		<rect x="330.815" y="498.013" fill="#ED2690" width="11.008" height="11.021"/>
		<rect x="297.81" y="509.082" fill="#ED2690" width="11.008" height="11.02"/>
		<rect x="297.81" y="498.013" fill="#ED2690" width="11.008" height="11.021"/>
		<rect x="308.817" y="498.013" fill="#ED2690" width="11.011" height="11.021"/>
		<rect x="341.823" y="498.013" fill="#ED2690" width="11.008" height="11.021"/>
		<rect x="363.839" y="498.013" fill="#ED2690" width="11.008" height="11.021"/>
		<rect x="341.823" y="486.959" fill="#ED2690" width="11.008" height="11.023"/>
		<rect x="363.839" y="486.959" fill="#ED2690" width="11.008" height="11.023"/>
		<rect x="341.823" y="475.94" fill="#ED2690" width="11.008" height="11.019"/>
		<rect x="352.831" y="475.94" fill="#ED2690" width="11.008" height="11.019"/>
		<rect x="363.839" y="475.94" fill="#ED2690" width="11.008" height="11.019"/>
	</g>
	<g id="Bullets">
		<rect x="297.641" y="542.48" fill="#ED2690" width="10.919" height="10.932"/>
		<rect x="297.641" y="553.412" fill="#ED2690" width="10.919" height="10.932"/>
		<rect x="297.641" y="673.995" fill="#ED2690" width="10.919" height="10.931"/>
		<rect x="297.641" y="684.926" fill="#ED2690" width="10.919" height="10.932"/>
		<rect x="297.641" y="608.637" fill="#A0519F" width="10.919" height="10.932"/>
		<rect x="297.641" y="619.568" fill="#A0519F" width="10.919" height="10.932"/>
		<rect x="297.641" y="739.527" fill="#A0519F" width="10.919" height="10.931"/>
		<rect x="297.641" y="750.458" fill="#A0519F" width="10.919" height="10.932"/>
		<rect x="297.641" y="564.344" fill="#ED2690" width="10.919" height="10.932"/>
		<rect x="297.641" y="695.857" fill="#ED2690" width="10.919" height="10.932"/>
		<rect x="297.641" y="630.5" fill="#A0519F" width="10.919" height="10.932"/>
		<rect x="297.641" y="761.39" fill="#A0519F" width="10.919" height="10.932"/>
	</g>
</g>
<g id="Flyer3_1_">
	<g id="BG_copy_3">
		<g id="BigKey_3_" opacity="0.08">
			<rect x="121.767" y="540.882" width="60.145" height="60.091"/>
			<rect x="120.767" y="420.827" width="61.145" height="60.083"/>
			<polygon points="181.976,781.215 181.976,721.132 242.328,721.132 242.328,661.055 242.328,600.973 242.328,541.005 
				242.328,540.882 242.328,480.91 241.828,480.9 242.328,420.827 181.671,420.827 181.671,480.9 181.671,480.91 181.671,540.882 
				181.671,541.005 181.671,600.973 181.671,661.055 181.671,721.132 181.911,721.132 181.911,661.055 121.767,661.055 
				121.767,721.132 121.832,721.132 121.832,781.215 121.767,781.215 121.767,841.292 182.411,841.292 182.411,781.215 
				181.671,781.215 181.671,841.292 241.828,841.292 241.828,781.215 			"/>
			<rect x="241.491" y="781.215" width="56.296" height="60.077"/>
			<rect x="241.313" y="661.055" width="56.474" height="60.077"/>
		</g>
	</g>
	<g id="Text_copy_3">
		<text transform="matrix(1 0 0 1 21.5737 552.4434)" font-family="'EurostileLTStd-Demi'" font-size="14">What</text>
		<text transform="matrix(1 0 0 1 21.6987 618.9824)" font-family="'EurostileLTStd-Demi'" font-size="14">Where</text>
		<text transform="matrix(1 0 0 1 21.6987 630.084)"><tspan x="0" y="0" font-family="'EurostileLTStd'" font-size="7">Currently events are taking place in numerous locations around the world.</tspan><tspan x="0" y="8.4" font-family="'EurostileLTStd'" font-size="7">Visit the wiki page to learn where and when events near you are happening </tspan><tspan x="0" y="16.8" font-family="'EurostileLTStd'" font-size="7">and how to start one in your area.</tspan></text>
		<text transform="matrix(1 0 0 1 21.5737 563.7197)"><tspan x="0" y="0" font-family="'EurostileLTStd'" font-size="7">CryptoParty is a decentralized, global initiative to introduce the most basic </tspan><tspan x="0" y="8.399" font-family="'EurostileLTStd'" font-size="7">cryptography programs and the fundamental concepts of their operation to </tspan><tspan x="0" y="16.8" font-family="'EurostileLTStd'" font-size="7">the general public.</tspan></text>
		<text transform="matrix(1 0 0 1 21.6987 684.4492)" font-family="'EurostileLTStd-Demi'" font-size="14">Why</text>
		<text transform="matrix(1 0 0 1 21.6987 695.334)"><tspan x="0" y="0" font-family="'EurostileLTStd'" font-size="7">Attend a CryptoParty to learn and teach how to use basic cryptography tools. </tspan><tspan x="0" y="8.4" font-family="'EurostileLTStd'" font-size="7">A CryptoParty is free, public and fun. People bring their computers, mobile </tspan><tspan x="0" y="16.801" font-family="'EurostileLTStd'" font-size="7">devices, and a willingness to learn! </tspan></text>
		<text transform="matrix(1 0 0 1 20.6987 750.0957)" font-family="'EurostileLTStd-Demi'" font-size="14">How</text>
		<text transform="matrix(1 0 0 1 21.2295 761.166)"><tspan x="0" y="0" font-family="'EurostileLTStd'" font-size="7">Throw a party. All you need is a time, a date and a location. Visit the wiki page </tspan><tspan x="0" y="8.4" font-family="'EurostileLTStd'" font-size="7">below to find out more.</tspan></text>
		<text transform="matrix(1 0 0 1 10.647 810.6455)"><tspan x="0" y="0" font-family="'EurostileLTStd-Ex2'" font-size="7">CRYPTOPARTY INFO: http://www.cryptoparty.in</tspan><tspan x="0" y="8.75" font-family="'EurostileLTStd-Ex2'" font-size="7">TWITTER: #CryptoParty </tspan></text>
		<text transform="matrix(1 0 0 1 207.9126 528.291)" opacity="0.8" font-family="'NewsGothicMT-Italic'" font-size="9">Party like it’s 1984!</text>
	</g>
	<g id="Logo_copy_3">
		<polygon fill="#A0519F" points="10.393,420.97 0.147,420.97 0.147,431.994 0.147,443.003 0.147,454.012 0.147,465.033 
			10.393,465.033 21.424,465.033 32.432,465.033 32.432,454.012 21.424,454.012 10.393,454.012 10.393,443.003 10.393,431.994 
			21.424,431.994 32.432,431.994 32.432,420.97 21.424,420.97 		"/>
		<path fill="#A0519F" d="M54.449,420.97h-11.01v11.024v11.009v11.009v11.021h11.01v-11.021H65.48v-10.994h11.008v-11.023l0,0
			V420.97H65.48H54.449z M65.48,431.994v10.994H54.448v-10.994H65.48L65.48,431.994z"/>
		<rect x="65.48" y="454.012" fill="#A0519F" width="11.008" height="11.021"/>
		<polygon fill="#A0519F" points="109.537,431.994 109.537,442.988 98.529,442.988 98.529,431.98 98.506,431.98 98.506,420.97 
			87.497,420.97 87.497,431.98 87.497,431.994 87.497,442.988 87.497,454.012 98.506,454.012 98.529,454.012 109.537,454.012 
			109.537,465.033 120.545,465.033 120.545,454.012 120.545,443.003 120.545,431.994 120.545,420.97 109.537,420.97 		"/>
		<path fill="#A0519F" d="M142.56,420.97h-11.007v11.024v11.009v11.009v11.021h11.007v-11.021h11.034h11.009v-11.023v-10.994v-0.014
			V420.97h-11.009H142.56z M153.594,442.988H142.56v-10.994h11.034V442.988z"/>
		<polygon fill="#A0519F" points="186.624,420.97 175.612,420.97 175.612,431.994 186.624,431.994 186.64,431.994 186.64,443.003 
			186.64,454.012 186.64,465.033 197.65,465.033 197.65,454.012 197.65,443.003 197.65,431.994 208.661,431.994 208.661,420.97 
			197.65,420.97 		"/>
		<path fill="#A0519F" d="M143.43,476.043h-11.009v11.004v11.008v11.027v11.02h11.009v-11.02h11.032v11.02h11.008v-11.02v-11.027
			v-11.008v-11.004h-11.008H143.43L143.43,476.043z M154.462,498.055H143.43v-11.008h11.032V498.055z"/>
		<path fill="#A0519F" d="M99.375,476.043h-11.01v11.004v11.008v11.027v11.02h11.01v-11.02h11.027h11.01v-11.027v-11.008v-0.016
			v-10.988h-11.01H99.375z M110.402,498.055H99.375v-11.008h11.027V498.055z"/>
		<polygon fill="#A0519F" points="231.544,476.043 220.535,476.043 220.535,487.047 231.544,487.047 231.568,487.047 
			231.568,498.055 231.568,509.082 231.568,520.102 242.576,520.102 242.576,509.082 242.576,498.055 242.576,487.047 
			253.584,487.047 253.584,476.043 242.576,476.043 		"/>
		<path fill="#A0519F" d="M187.488,476.043h-11.009v11.004v11.008v11.027v11.02h11.009v-11.02h11.03V498.07h11.009v-11.008v-0.016
			v-11.004h-11.009H187.488L187.488,476.043z M198.519,487.063v10.992h-11.03v-11.008h11.03V487.063z"/>
		<rect x="198.519" y="509.082" fill="#A0519F" width="11.009" height="11.02"/>
		<polygon fill="#A0519F" points="286.632,476.043 286.632,487.047 286.632,498.055 275.623,498.055 275.623,487.032 
			275.601,487.032 275.601,476.043 264.592,476.043 264.592,487.032 264.592,487.047 264.592,498.055 264.592,509.082 
			275.601,509.082 275.623,509.082 286.632,509.082 286.632,520.102 297.641,520.102 297.641,509.082 297.641,498.055 
			297.641,487.047 297.641,476.043 		"/>
		<rect x="231.177" y="453.909" fill="#ED2690" width="11.009" height="11.022"/>
		<rect x="264.201" y="454.012" fill="#ED2690" width="11.01" height="11.021"/>
		<rect x="242.186" y="454.012" fill="#ED2690" width="11.008" height="11.021"/>
		<rect x="220.169" y="454.012" fill="#ED2690" width="11.008" height="11.021"/>
		<rect x="264.201" y="442.958" fill="#ED2690" width="11.01" height="11.024"/>
		<rect x="253.193" y="442.958" fill="#ED2690" width="11.008" height="11.024"/>
		<rect x="286.198" y="454.012" fill="#ED2690" width="11.009" height="11.021"/>
		<rect x="286.198" y="442.958" fill="#ED2690" width="11.009" height="11.024"/>
		<rect x="275.19" y="442.958" fill="#ED2690" width="11.008" height="11.024"/>
		<rect x="242.186" y="442.958" fill="#ED2690" width="11.008" height="11.024"/>
		<rect x="220.169" y="442.958" fill="#ED2690" width="11.008" height="11.024"/>
		<rect x="242.186" y="431.891" fill="#ED2690" width="11.008" height="11.022"/>
		<rect x="220.169" y="431.891" fill="#ED2690" width="11.008" height="11.022"/>
		<rect x="242.186" y="420.868" fill="#ED2690" width="11.008" height="11.023"/>
		<rect x="231.177" y="420.868" fill="#ED2690" width="11.009" height="11.023"/>
		<rect x="220.169" y="420.868" fill="#ED2690" width="11.008" height="11.023"/>
		<rect x="55.338" y="508.979" fill="#ED2690" width="11.008" height="11.02"/>
		<rect x="22.313" y="509.082" fill="#ED2690" width="11.01" height="11.02"/>
		<rect x="44.33" y="509.082" fill="#ED2690" width="11.008" height="11.02"/>
		<rect x="66.346" y="509.082" fill="#ED2690" width="11.008" height="11.02"/>
		<rect x="22.313" y="498.013" fill="#ED2690" width="11.01" height="11.021"/>
		<rect x="33.322" y="498.013" fill="#ED2690" width="11.008" height="11.021"/>
		<rect x="0.316" y="509.082" fill="#ED2690" width="11.008" height="11.02"/>
		<rect x="0.316" y="498.013" fill="#ED2690" width="11.008" height="11.021"/>
		<rect x="11.324" y="498.013" fill="#ED2690" width="11.011" height="11.021"/>
		<rect x="44.33" y="498.013" fill="#ED2690" width="11.008" height="11.021"/>
		<rect x="66.346" y="498.013" fill="#ED2690" width="11.008" height="11.021"/>
		<rect x="44.33" y="486.959" fill="#ED2690" width="11.008" height="11.023"/>
		<rect x="66.346" y="486.959" fill="#ED2690" width="11.008" height="11.023"/>
		<rect x="44.33" y="475.94" fill="#ED2690" width="11.008" height="11.019"/>
		<rect x="55.338" y="475.94" fill="#ED2690" width="11.008" height="11.019"/>
		<rect x="66.346" y="475.94" fill="#ED2690" width="11.008" height="11.019"/>
	</g>
	<g id="Bullets_copy_3">
		<rect x="0.147" y="542.48" fill="#ED2690" width="10.919" height="10.932"/>
		<rect x="0.147" y="553.412" fill="#ED2690" width="10.919" height="10.932"/>
		<rect x="0.147" y="673.995" fill="#ED2690" width="10.919" height="10.931"/>
		<rect x="0.147" y="684.926" fill="#ED2690" width="10.919" height="10.932"/>
		<rect x="0.147" y="608.637" fill="#A0519F" width="10.919" height="10.932"/>
		<rect x="0.147" y="619.568" fill="#A0519F" width="10.919" height="10.932"/>
		<rect x="0.147" y="739.527" fill="#A0519F" width="10.919" height="10.931"/>
		<rect x="0.147" y="750.458" fill="#A0519F" width="10.919" height="10.932"/>
		<rect x="0.147" y="564.344" fill="#ED2690" width="10.919" height="10.932"/>
		<rect x="0.147" y="695.857" fill="#ED2690" width="10.919" height="10.932"/>
		<rect x="0.147" y="630.5" fill="#A0519F" width="10.919" height="10.932"/>
		<rect x="0.147" y="761.39" fill="#A0519F" width="10.919" height="10.932"/>
	</g>
</g>
<g id="Flyer2_copy">
	<g id="BG_copy_2">
		<g id="BigKey_2_" opacity="0.08">
			<rect x="419.26" y="120.417" width="60.145" height="60.091"/>
			<rect x="418.26" y="0.362" width="61.145" height="60.083"/>
			<polygon points="479.469,360.75 479.469,300.667 539.821,300.667 539.821,240.59 539.821,180.508 539.821,120.54 
				539.821,120.417 539.821,60.445 539.321,60.436 539.821,0.362 479.164,0.362 479.164,60.436 479.164,60.445 479.164,120.417 
				479.164,120.54 479.164,180.508 479.164,240.59 479.164,300.667 479.404,300.667 479.404,240.59 419.26,240.59 419.26,300.667 
				419.325,300.667 419.325,360.75 419.26,360.75 419.26,420.827 479.904,420.827 479.904,360.75 479.164,360.75 479.164,420.827 
				539.321,420.827 539.321,360.75 			"/>
			<rect x="538.984" y="360.75" width="56.296" height="60.077"/>
			<rect x="538.807" y="240.59" width="56.474" height="60.077"/>
		</g>
	</g>
	<g id="Text_copy_2">
		<text transform="matrix(1 0 0 1 319.0664 131.978)" font-family="'EurostileLTStd-Demi'" font-size="14">What</text>
		<text transform="matrix(1 0 0 1 319.1914 198.5181)" font-family="'EurostileLTStd-Demi'" font-size="14">Where</text>
		<text transform="matrix(1 0 0 1 319.1914 209.6191)"><tspan x="0" y="0" font-family="'EurostileLTStd'" font-size="7">Currently events are taking place in numerous locations around the world.</tspan><tspan x="0" y="8.4" font-family="'EurostileLTStd'" font-size="7">Visit the wiki page to learn where and when events near you are happening </tspan><tspan x="0" y="16.8" font-family="'EurostileLTStd'" font-size="7">and how to start one in your area.</tspan></text>
		<text transform="matrix(1 0 0 1 319.0664 143.2549)"><tspan x="0" y="0" font-family="'EurostileLTStd'" font-size="7">CryptoParty is a decentralized, global initiative to introduce the most basic </tspan><tspan x="0" y="8.4" font-family="'EurostileLTStd'" font-size="7">cryptography programs and the fundamental concepts of their operation to </tspan><tspan x="0" y="16.8" font-family="'EurostileLTStd'" font-size="7">the general public.</tspan></text>
		<text transform="matrix(1 0 0 1 319.1914 263.9849)" font-family="'EurostileLTStd-Demi'" font-size="14">Why</text>
		<text transform="matrix(1 0 0 1 319.1914 274.8696)"><tspan x="0" y="0" font-family="'EurostileLTStd'" font-size="7">Attend a CryptoParty to learn and teach how to use basic cryptography tools. </tspan><tspan x="0" y="8.4" font-family="'EurostileLTStd'" font-size="7">A CryptoParty is free, public and fun. People bring their computers, mobile </tspan><tspan x="0" y="16.8" font-family="'EurostileLTStd'" font-size="7">devices, and a willingness to learn! </tspan></text>
		<text transform="matrix(1 0 0 1 318.1914 329.6313)" font-family="'EurostileLTStd-Demi'" font-size="14">How</text>
		<text transform="matrix(1 0 0 1 318.7227 340.7017)"><tspan x="0" y="0" font-family="'EurostileLTStd'" font-size="7">Throw a party. All you need is a time, a date and a location. Visit the wiki page </tspan><tspan x="0" y="8.4" font-family="'EurostileLTStd'" font-size="7">below to find out more.</tspan></text>
		<text transform="matrix(1 0 0 1 308.1406 390.1807)"><tspan x="0" y="0" font-family="'EurostileLTStd-Ex2'" font-size="7">CRYPTOPARTY INFO: http://www.cryptoparty.in</tspan><tspan x="0" y="8.75" font-family="'EurostileLTStd-Ex2'" font-size="7">TWITTER: #CryptoParty </tspan></text>
		<text transform="matrix(1 0 0 1 505.4063 107.8267)" opacity="0.8" font-family="'NewsGothicMT-Italic'" font-size="9">Party like it’s 1984!</text>
	</g>
	<g id="Logo_copy_2">
		<polygon fill="#A0519F" points="307.886,0.505 297.641,0.505 297.641,11.529 297.641,22.538 297.641,33.547 297.641,44.569 
			307.886,44.569 318.917,44.569 329.925,44.569 329.925,33.547 318.917,33.547 307.886,33.547 307.886,22.538 307.886,11.529 
			318.917,11.529 329.925,11.529 329.925,0.505 318.917,0.505 		"/>
		<path fill="#A0519F" d="M351.942,0.505h-11.01v11.024v11.009v11.009v11.021h11.01V33.547h11.031V22.553h11.008V11.529l0,0V0.505
			h-11.008H351.942z M362.974,11.529v10.995h-11.032V11.529H362.974L362.974,11.529z"/>
		<rect x="362.974" y="33.547" fill="#A0519F" width="11.008" height="11.021"/>
		<polygon fill="#A0519F" points="407.03,11.529 407.03,22.524 396.022,22.524 396.022,11.516 395.999,11.516 395.999,0.505 
			384.99,0.505 384.99,11.516 384.99,11.529 384.99,22.524 384.99,33.547 395.999,33.547 396.022,33.547 407.03,33.547 
			407.03,44.569 418.038,44.569 418.038,33.547 418.038,22.538 418.038,11.529 418.038,0.505 407.03,0.505 		"/>
		<path fill="#A0519F" d="M440.053,0.505h-11.007v11.024v11.009v11.009v11.021h11.007V33.547h11.034h11.009V22.524V11.529v-0.013
			V0.505h-11.009H440.053z M451.087,22.524h-11.034V11.529h11.034V22.524z"/>
		<polygon fill="#A0519F" points="484.117,0.505 473.105,0.505 473.105,11.529 484.117,11.529 484.133,11.529 484.133,22.538 
			484.133,33.547 484.133,44.569 495.144,44.569 495.144,33.547 495.144,22.538 495.144,11.529 506.154,11.529 506.154,0.505 
			495.144,0.505 		"/>
		<path fill="#A0519F" d="M440.923,55.579h-11.009v11.003V77.59v11.027v11.019h11.009V88.617h11.032v11.019h11.008V88.617V77.589
			V66.582V55.579h-11.008H440.923L440.923,55.579z M451.955,77.59h-11.032V66.582h11.032V77.59z"/>
		<path fill="#A0519F" d="M396.868,55.579h-11.01v11.003V77.59v11.027v11.019h11.01V88.617h11.027h11.01V77.589V66.582v-0.015
			V55.579h-11.01H396.868z M407.896,77.59h-11.027V66.582h11.027V77.59z"/>
		<polygon fill="#A0519F" points="529.037,55.579 518.028,55.579 518.028,66.582 529.037,66.582 529.062,66.582 529.062,77.59 
			529.062,88.618 529.062,99.637 540.069,99.637 540.069,88.618 540.069,77.59 540.069,66.582 551.077,66.582 551.077,55.579 
			540.069,55.579 		"/>
		<path fill="#A0519F" d="M484.981,55.579h-11.009v11.003V77.59v11.027v11.019h11.009V88.617h11.03V77.605h11.009V66.598v-0.016
			V55.579h-11.009H484.981L484.981,55.579z M496.012,66.598V77.59h-11.03V66.582h11.03V66.598z"/>
		<rect x="496.012" y="88.618" fill="#A0519F" width="11.009" height="11.019"/>
		<polygon fill="#A0519F" points="584.125,55.579 584.125,66.582 584.125,77.59 573.116,77.59 573.116,66.567 573.094,66.567 
			573.094,55.579 562.085,55.579 562.085,66.567 562.085,66.582 562.085,77.59 562.085,88.618 573.094,88.618 573.116,88.618 
			584.125,88.618 584.125,99.637 595.134,99.637 595.134,88.618 595.134,77.59 595.134,66.582 595.134,55.579 		"/>
		<rect x="528.67" y="33.444" fill="#ED2690" width="11.009" height="11.023"/>
		<rect x="561.694" y="33.547" fill="#ED2690" width="11.01" height="11.021"/>
		<rect x="539.679" y="33.547" fill="#ED2690" width="11.008" height="11.021"/>
		<rect x="517.662" y="33.547" fill="#ED2690" width="11.008" height="11.021"/>
		<rect x="561.694" y="22.493" fill="#ED2690" width="11.01" height="11.024"/>
		<rect x="550.687" y="22.493" fill="#ED2690" width="11.008" height="11.024"/>
		<rect x="583.691" y="33.547" fill="#ED2690" width="11.009" height="11.021"/>
		<rect x="583.691" y="22.493" fill="#ED2690" width="11.009" height="11.024"/>
		<rect x="572.684" y="22.493" fill="#ED2690" width="11.008" height="11.024"/>
		<rect x="539.679" y="22.493" fill="#ED2690" width="11.008" height="11.024"/>
		<rect x="517.662" y="22.493" fill="#ED2690" width="11.008" height="11.024"/>
		<rect x="539.679" y="11.426" fill="#ED2690" width="11.008" height="11.022"/>
		<rect x="517.662" y="11.426" fill="#ED2690" width="11.008" height="11.022"/>
		<rect x="539.679" y="0.403" fill="#ED2690" width="11.008" height="11.023"/>
		<rect x="528.67" y="0.403" fill="#ED2690" width="11.009" height="11.023"/>
		<rect x="517.662" y="0.403" fill="#ED2690" width="11.008" height="11.023"/>
		<rect x="352.831" y="88.514" fill="#ED2690" width="11.008" height="11.02"/>
		<rect x="319.806" y="88.618" fill="#ED2690" width="11.01" height="11.019"/>
		<rect x="341.823" y="88.618" fill="#ED2690" width="11.008" height="11.019"/>
		<rect x="363.839" y="88.618" fill="#ED2690" width="11.008" height="11.019"/>
		<rect x="319.806" y="77.548" fill="#ED2690" width="11.01" height="11.021"/>
		<rect x="330.815" y="77.548" fill="#ED2690" width="11.008" height="11.021"/>
		<rect x="297.81" y="88.618" fill="#ED2690" width="11.008" height="11.019"/>
		<rect x="297.81" y="77.548" fill="#ED2690" width="11.008" height="11.021"/>
		<rect x="308.817" y="77.548" fill="#ED2690" width="11.011" height="11.021"/>
		<rect x="341.823" y="77.548" fill="#ED2690" width="11.008" height="11.021"/>
		<rect x="363.839" y="77.548" fill="#ED2690" width="11.008" height="11.021"/>
		<rect x="341.823" y="66.495" fill="#ED2690" width="11.008" height="11.023"/>
		<rect x="363.839" y="66.495" fill="#ED2690" width="11.008" height="11.023"/>
		<rect x="341.823" y="55.476" fill="#ED2690" width="11.008" height="11.019"/>
		<rect x="352.831" y="55.476" fill="#ED2690" width="11.008" height="11.019"/>
		<rect x="363.839" y="55.476" fill="#ED2690" width="11.008" height="11.019"/>
	</g>
	<g id="Bullets_copy_2">
		<rect x="297.641" y="122.016" fill="#ED2690" width="10.919" height="10.932"/>
		<rect x="297.641" y="132.948" fill="#ED2690" width="10.919" height="10.931"/>
		<rect x="297.641" y="253.53" fill="#ED2690" width="10.919" height="10.931"/>
		<rect x="297.641" y="264.461" fill="#ED2690" width="10.919" height="10.932"/>
		<rect x="297.641" y="188.172" fill="#A0519F" width="10.919" height="10.931"/>
		<rect x="297.641" y="199.104" fill="#A0519F" width="10.919" height="10.931"/>
		<rect x="297.641" y="319.063" fill="#A0519F" width="10.919" height="10.931"/>
		<rect x="297.641" y="329.993" fill="#A0519F" width="10.919" height="10.932"/>
		<rect x="297.641" y="143.879" fill="#ED2690" width="10.919" height="10.931"/>
		<rect x="297.641" y="275.393" fill="#ED2690" width="10.919" height="10.932"/>
		<rect x="297.641" y="210.035" fill="#A0519F" width="10.919" height="10.932"/>
		<rect x="297.641" y="340.925" fill="#A0519F" width="10.919" height="10.932"/>
	</g>
</g>
<g id="Flyer1">
	<g id="BG_copy">
		<g id="BigKey_1_" opacity="0.08">
			<rect x="121.789" y="120.417" width="60.145" height="60.091"/>
			<rect x="120.789" y="0.362" width="61.145" height="60.083"/>
			<polygon points="181.998,360.75 181.998,300.667 242.35,300.667 242.35,240.59 242.35,180.508 242.35,120.54 242.35,120.417 
				242.35,60.445 241.85,60.436 242.35,0.362 181.693,0.362 181.693,60.436 181.693,60.445 181.693,120.417 181.693,120.54 
				181.693,180.508 181.693,240.59 181.693,300.667 181.933,300.667 181.933,240.59 121.789,240.59 121.789,300.667 
				121.854,300.667 121.854,360.75 121.789,360.75 121.789,420.827 182.433,420.827 182.433,360.75 181.693,360.75 181.693,420.827 
				241.85,420.827 241.85,360.75 			"/>
			<rect x="241.513" y="360.75" width="56.296" height="60.077"/>
			<rect x="241.335" y="240.59" width="56.474" height="60.077"/>
		</g>
	</g>
	<g id="Text_copy">
		<text transform="matrix(1 0 0 1 21.5957 131.978)" font-family="'EurostileLTStd-Demi'" font-size="14">What</text>
		<text transform="matrix(1 0 0 1 21.7207 198.5181)" font-family="'EurostileLTStd-Demi'" font-size="14">Where</text>
		<text transform="matrix(1 0 0 1 21.7207 209.6191)"><tspan x="0" y="0" font-family="'EurostileLTStd'" font-size="7">Currently events are taking place in numerous locations around the world.</tspan><tspan x="0" y="8.4" font-family="'EurostileLTStd'" font-size="7">Visit the wiki page to learn where and when events near you are happening </tspan><tspan x="0" y="16.8" font-family="'EurostileLTStd'" font-size="7">and how to start one in your area.</tspan></text>
		<text transform="matrix(1 0 0 1 21.5957 143.2549)"><tspan x="0" y="0" font-family="'EurostileLTStd'" font-size="7">CryptoParty is a decentralized, global initiative to introduce the most basic </tspan><tspan x="0" y="8.4" font-family="'EurostileLTStd'" font-size="7">cryptography programs and the fundamental concepts of their operation to </tspan><tspan x="0" y="16.8" font-family="'EurostileLTStd'" font-size="7">the general public.</tspan></text>
		<text transform="matrix(1 0 0 1 21.7207 263.9849)" font-family="'EurostileLTStd-Demi'" font-size="14">Why</text>
		<text transform="matrix(1 0 0 1 21.7207 274.8696)"><tspan x="0" y="0" font-family="'EurostileLTStd'" font-size="7">Attend a CryptoParty to learn and teach how to use basic cryptography tools. </tspan><tspan x="0" y="8.4" font-family="'EurostileLTStd'" font-size="7">A CryptoParty is free, public and fun. People bring their computers, mobile </tspan><tspan x="0" y="16.8" font-family="'EurostileLTStd'" font-size="7">devices, and a willingness to learn! </tspan></text>
		<text transform="matrix(1 0 0 1 20.7207 329.6313)" font-family="'EurostileLTStd-Demi'" font-size="14">How</text>
		<text transform="matrix(1 0 0 1 21.2515 340.7017)"><tspan x="0" y="0" font-family="'EurostileLTStd'" font-size="7">Throw a party. All you need is a time, a date and a location. Visit the wiki page </tspan><tspan x="0" y="8.4" font-family="'EurostileLTStd'" font-size="7">below to find out more.</tspan></text>
		<text transform="matrix(1 0 0 1 10.6689 390.1807)"><tspan x="0" y="0" font-family="'EurostileLTStd-Ex2'" font-size="7">CRYPTOPARTY INFO: http://www.cryptoparty.in</tspan><tspan x="0" y="8.75" font-family="'EurostileLTStd-Ex2'" font-size="7">TWITTER: #CryptoParty </tspan></text>
		<text transform="matrix(1 0 0 1 207.9346 107.8267)" opacity="0.8" font-family="'NewsGothicMT-Italic'" font-size="9">Party like it’s 1984!</text>
	</g>
	<g id="Logo_copy">
		<polygon fill="#A0519F" points="10.414,0.505 0.169,0.505 0.169,11.529 0.169,22.538 0.169,33.547 0.169,44.569 10.414,44.569 
			21.446,44.569 32.454,44.569 32.454,33.547 21.446,33.547 10.414,33.547 10.414,22.538 10.414,11.529 21.446,11.529 
			32.454,11.529 32.454,0.505 21.446,0.505 		"/>
		<path fill="#A0519F" d="M54.471,0.505H43.462v11.024v11.009v11.009v11.021h11.009V33.547h11.032V22.553h11.008V11.529l0,0V0.505
			H65.502H54.471z M65.502,11.529v10.995H54.47V11.529H65.502L65.502,11.529z"/>
		<rect x="65.502" y="33.547" fill="#A0519F" width="11.008" height="11.021"/>
		<polygon fill="#A0519F" points="109.559,11.529 109.559,22.524 98.551,22.524 98.551,11.516 98.527,11.516 98.527,0.505 
			87.519,0.505 87.519,11.516 87.519,11.529 87.519,22.524 87.519,33.547 98.527,33.547 98.551,33.547 109.559,33.547 
			109.559,44.569 120.567,44.569 120.567,33.547 120.567,22.538 120.567,11.529 120.567,0.505 109.559,0.505 		"/>
		<path fill="#A0519F" d="M142.582,0.505h-11.007v11.024v11.009v11.009v11.021h11.007V33.547h11.034h11.009V22.524V11.529v-0.013
			V0.505h-11.009H142.582z M153.616,22.524h-11.034V11.529h11.034V22.524z"/>
		<polygon fill="#A0519F" points="186.646,0.505 175.634,0.505 175.634,11.529 186.646,11.529 186.662,11.529 186.662,22.538 
			186.662,33.547 186.662,44.569 197.672,44.569 197.672,33.547 197.672,22.538 197.672,11.529 208.683,11.529 208.683,0.505 
			197.672,0.505 		"/>
		<path fill="#A0519F" d="M143.452,55.579h-11.009v11.003V77.59v11.027v11.019h11.009V88.617h11.032v11.019h11.008V88.617V77.589
			V66.582V55.579h-11.008H143.452L143.452,55.579z M154.484,77.59h-11.032V66.582h11.032V77.59z"/>
		<path fill="#A0519F" d="M99.396,55.579H88.388v11.003V77.59v11.027v11.019h11.009V88.617h11.028h11.01V77.589V66.582v-0.015
			V55.579h-11.01H99.396z M110.425,77.59H99.396V66.582h11.028V77.59z"/>
		<polygon fill="#A0519F" points="231.566,55.579 220.557,55.579 220.557,66.582 231.566,66.582 231.59,66.582 231.59,77.59 
			231.59,88.618 231.59,99.637 242.598,99.637 242.598,88.618 242.598,77.59 242.598,66.582 253.606,66.582 253.606,55.579 
			242.598,55.579 		"/>
		<path fill="#A0519F" d="M187.51,55.579h-11.009v11.003V77.59v11.027v11.019h11.009V88.617h11.03V77.605h11.009V66.598v-0.016
			V55.579h-11.009H187.51L187.51,55.579z M198.541,66.598V77.59h-11.03V66.582h11.03V66.598z"/>
		<rect x="198.541" y="88.618" fill="#A0519F" width="11.009" height="11.019"/>
		<polygon fill="#A0519F" points="286.654,55.579 286.654,66.582 286.654,77.59 275.645,77.59 275.645,66.567 275.623,66.567 
			275.623,55.579 264.614,55.579 264.614,66.567 264.614,66.582 264.614,77.59 264.614,88.618 275.623,88.618 275.645,88.618 
			286.654,88.618 286.654,99.637 297.663,99.637 297.663,88.618 297.663,77.59 297.663,66.582 297.663,55.579 		"/>
		<rect x="231.199" y="33.444" fill="#ED2690" width="11.009" height="11.023"/>
		<rect x="264.223" y="33.547" fill="#ED2690" width="11.01" height="11.021"/>
		<rect x="242.208" y="33.547" fill="#ED2690" width="11.008" height="11.021"/>
		<rect x="220.191" y="33.547" fill="#ED2690" width="11.008" height="11.021"/>
		<rect x="264.223" y="22.493" fill="#ED2690" width="11.01" height="11.024"/>
		<rect x="253.215" y="22.493" fill="#ED2690" width="11.008" height="11.024"/>
		<rect x="286.22" y="33.547" fill="#ED2690" width="11.009" height="11.021"/>
		<rect x="286.22" y="22.493" fill="#ED2690" width="11.009" height="11.024"/>
		<rect x="275.212" y="22.493" fill="#ED2690" width="11.008" height="11.024"/>
		<rect x="242.208" y="22.493" fill="#ED2690" width="11.008" height="11.024"/>
		<rect x="220.191" y="22.493" fill="#ED2690" width="11.008" height="11.024"/>
		<rect x="242.208" y="11.426" fill="#ED2690" width="11.008" height="11.022"/>
		<rect x="220.191" y="11.426" fill="#ED2690" width="11.008" height="11.022"/>
		<rect x="242.208" y="0.403" fill="#ED2690" width="11.008" height="11.023"/>
		<rect x="231.199" y="0.403" fill="#ED2690" width="11.009" height="11.023"/>
		<rect x="220.191" y="0.403" fill="#ED2690" width="11.008" height="11.023"/>
		<rect x="55.359" y="88.514" fill="#ED2690" width="11.008" height="11.02"/>
		<rect x="22.334" y="88.618" fill="#ED2690" width="11.01" height="11.019"/>
		<rect x="44.352" y="88.618" fill="#ED2690" width="11.007" height="11.019"/>
		<rect x="66.367" y="88.618" fill="#ED2690" width="11.008" height="11.019"/>
		<rect x="22.334" y="77.548" fill="#ED2690" width="11.01" height="11.021"/>
		<rect x="33.344" y="77.548" fill="#ED2690" width="11.008" height="11.021"/>
		<rect x="0.338" y="88.618" fill="#ED2690" width="11.008" height="11.019"/>
		<rect x="0.338" y="77.548" fill="#ED2690" width="11.008" height="11.021"/>
		<rect x="11.346" y="77.548" fill="#ED2690" width="11.011" height="11.021"/>
		<rect x="44.352" y="77.548" fill="#ED2690" width="11.007" height="11.021"/>
		<rect x="66.367" y="77.548" fill="#ED2690" width="11.008" height="11.021"/>
		<rect x="44.352" y="66.495" fill="#ED2690" width="11.007" height="11.023"/>
		<rect x="66.367" y="66.495" fill="#ED2690" width="11.008" height="11.023"/>
		<rect x="44.352" y="55.476" fill="#ED2690" width="11.007" height="11.019"/>
		<rect x="55.359" y="55.476" fill="#ED2690" width="11.008" height="11.019"/>
		<rect x="66.367" y="55.476" fill="#ED2690" width="11.008" height="11.019"/>
	</g>
	<g id="Bullets_copy">
		<rect x="0.169" y="122.016" fill="#ED2690" width="10.919" height="10.932"/>
		<rect x="0.169" y="132.948" fill="#ED2690" width="10.919" height="10.931"/>
		<rect x="0.169" y="253.53" fill="#ED2690" width="10.919" height="10.931"/>
		<rect x="0.169" y="264.461" fill="#ED2690" width="10.919" height="10.932"/>
		<rect x="0.169" y="188.172" fill="#A0519F" width="10.919" height="10.931"/>
		<rect x="0.169" y="199.104" fill="#A0519F" width="10.919" height="10.931"/>
		<rect x="0.169" y="319.063" fill="#A0519F" width="10.919" height="10.931"/>
		<rect x="0.169" y="329.993" fill="#A0519F" width="10.919" height="10.932"/>
		<rect x="0.169" y="143.879" fill="#ED2690" width="10.919" height="10.931"/>
		<rect x="0.169" y="275.393" fill="#ED2690" width="10.919" height="10.932"/>
		<rect x="0.169" y="210.035" fill="#A0519F" width="10.919" height="10.932"/>
		<rect x="0.169" y="340.925" fill="#A0519F" width="10.919" height="10.932"/>
	</g>
</g>
</svg>
