<?xml version="1.0" encoding="UTF-8" standalone="no"?>
<!-- Created with Inkscape (http://www.inkscape.org/) -->

<svg
   xmlns:dc="http://purl.org/dc/elements/1.1/"
   xmlns:cc="http://creativecommons.org/ns#"
   xmlns:rdf="http://www.w3.org/1999/02/22-rdf-syntax-ns#"
   xmlns:svg="http://www.w3.org/2000/svg"
   xmlns="http://www.w3.org/2000/svg"
   xmlns:sodipodi="http://sodipodi.sourceforge.net/DTD/sodipodi-0.dtd"
   xmlns:inkscape="http://www.inkscape.org/namespaces/inkscape"
   width="131.10236"
   height="379.13385"
   id="svg2"
   version="1.1"
   inkscape:version="0.48.4 r9939"
   style="enable-background:new"
   sodipodi:docname="cryptopartyathens.svg"
   inkscape:export-filename="/home/shiro/Desktop/cryptopartyathens.png"
   inkscape:export-xdpi="300"
   inkscape:export-ydpi="300">
  <defs
     id="defs4">
    <filter
       inkscape:collect="always"
       id="filter4102"
       color-interpolation-filters="sRGB">
      <feBlend
         inkscape:collect="always"
         mode="multiply"
         in2="BackgroundImage"
         id="feBlend4104" />
    </filter>
    <filter
       inkscape:collect="always"
       id="filter4106"
       color-interpolation-filters="sRGB">
      <feBlend
         inkscape:collect="always"
         mode="multiply"
         in2="BackgroundImage"
         id="feBlend4108" />
    </filter>
  </defs>
  <sodipodi:namedview
     id="base"
     pagecolor="#ffffff"
     bordercolor="#666666"
     borderopacity="1.0"
     inkscape:pageopacity="0.0"
     inkscape:pageshadow="2"
     inkscape:zoom="2.8284271"
     inkscape:cx="156.34215"
     inkscape:cy="168.28617"
     inkscape:document-units="px"
     inkscape:current-layer="layer1"
     showgrid="false"
     showguides="true"
     inkscape:guide-bbox="true"
     units="cm"
     inkscape:window-width="1920"
     inkscape:window-height="1056"
     inkscape:window-x="0"
     inkscape:window-y="24"
     inkscape:window-maximized="1">
    <sodipodi:guide
       orientation="1,0"
       position="-13.75,134.28571"
       id="guide4161" />
  </sodipodi:namedview>
  <metadata
     id="metadata7">
    <rdf:RDF>
      <cc:Work
         rdf:about="">
        <dc:format>image/svg+xml</dc:format>
        <dc:type
           rdf:resource="http://purl.org/dc/dcmitype/StillImage" />
        <dc:title />
      </cc:Work>
    </rdf:RDF>
  </metadata>
  <g
     inkscape:groupmode="layer"
     id="layer2"
     inkscape:label="Layer"
     style="filter:url(#filter4102)"
     transform="translate(0,-920.86621)" />
  <g
     inkscape:label="Layer 1"
     inkscape:groupmode="layer"
     id="layer1"
     transform="translate(0,-673.22815)"
     style="display:inline;filter:url(#filter4106)">
    <g
       id="g3055"
       transform="matrix(0,1,-1,0,1053.1381,670.52146)">
      <rect
         y="921.11475"
         x="-1.0714287"
         height="132.94432"
         width="386.69009"
         id="rect2985"
         style="fill:#000000;fill-opacity:1;stroke:#8aff42;stroke-width:0;stroke-miterlimit:4;stroke-opacity:1;stroke-dasharray:none" />
      <flowRoot
         transform="matrix(0.11260713,0,0,0.09101272,2.5286631,918.6733)"
         style="font-size:400px;font-style:normal;font-variant:normal;font-weight:600;font-stretch:normal;text-align:start;line-height:125%;letter-spacing:0px;word-spacing:0px;writing-mode:lr-tb;text-anchor:start;fill:#cd0037;fill-opacity:1;stroke:none;font-family:URW Gothic L;-inkscape-font-specification:URW Gothic L Semi-Bold"
         id="flowRoot2987"
         xml:space="preserve"><flowRegion
           id="flowRegion2989"><rect
             style="font-size:400px;font-style:normal;font-variant:normal;font-weight:600;font-stretch:normal;text-align:start;line-height:125%;writing-mode:lr-tb;text-anchor:start;fill:#cd0037;fill-opacity:1;font-family:URW Gothic L;-inkscape-font-specification:URW Gothic L Semi-Bold"
             y="91.428574"
             x="77.14286"
             height="725.71429"
             width="3788.5715"
             id="rect2991" /></flowRegion><flowPara
           id="flowPara2995">ENCRYPT</flowPara></flowRoot>      <flowRoot
         transform="matrix(0.11260713,0,0,0.09101272,94.484785,957.08969)"
         style="font-size:400px;font-style:normal;font-variant:normal;font-weight:600;font-stretch:normal;text-align:start;line-height:125%;letter-spacing:0px;word-spacing:0px;writing-mode:lr-tb;text-anchor:start;fill:#ffffff;fill-opacity:1;stroke:none;font-family:URW Gothic L;-inkscape-font-specification:URW Gothic L Semi-Bold"
         id="flowRoot2987-8"
         xml:space="preserve"><flowRegion
           id="flowRegion2989-8"><rect
             style="font-size:400px;font-style:normal;font-variant:normal;font-weight:600;font-stretch:normal;text-align:start;line-height:125%;writing-mode:lr-tb;text-anchor:start;fill:#ffffff;font-family:URW Gothic L;-inkscape-font-specification:URW Gothic L Semi-Bold"
             y="91.428574"
             x="77.14286"
             height="725.71429"
             width="3788.5715"
             id="rect2991-2" /></flowRegion><flowPara
           id="flowPara2995-9">EVERYTHING</flowPara></flowRoot>      <rect
         style="fill:#fefefe;fill-opacity:1"
         x="-82.631905"
         y="1027.8901"
         width="3.9026647"
         height="3.8861518"
         id="rect4011-1-7"
         transform="scale(-1,1)" />
      <rect
         style="fill:#fefefe;fill-opacity:1"
         x="-94.340164"
         y="1026.8019"
         width="3.9032094"
         height="5.0106773"
         id="rect4013-0-6"
         transform="scale(-1,1)" />
      <rect
         style="fill:#fefefe;fill-opacity:1"
         x="-86.534286"
         y="1027.9266"
         width="11.714966"
         height="3.8858809"
         id="rect4015-4-9"
         transform="scale(-1,1)"
         ry="0" />
      <rect
         style="fill:#fefefe;fill-opacity:1"
         x="-78.72924"
         y="1027.9266"
         width="3.9026647"
         height="3.8858809"
         id="rect4017-7-1"
         transform="scale(-1,1)" />
      <rect
         style="fill:#fefefe;fill-opacity:1"
         x="-94.340164"
         y="1024.0231"
         width="3.9032094"
         height="3.8868289"
         id="rect4019-3-4"
         transform="scale(-1,1)" />
      <rect
         style="fill:#fefefe;fill-opacity:1"
         x="-90.436951"
         y="1024.0231"
         width="3.9026647"
         height="3.8868289"
         id="rect4021-2-1"
         transform="scale(-1,1)" />
      <rect
         style="fill:#fefefe;fill-opacity:1"
         x="-102.13801"
         y="1027.045"
         width="3.9025283"
         height="4.7674789"
         id="rect4023-3-0"
         transform="scale(-1,1)" />
      <rect
         style="fill:#fefefe;fill-opacity:1"
         x="-102.13702"
         y="1024.0231"
         width="16.584806"
         height="3.8868289"
         id="rect4025-8-7"
         transform="scale(-1,1)" />
      <rect
         style="fill:#fefefe;fill-opacity:1"
         x="-98.235619"
         y="1024.0231"
         width="3.9037533"
         height="3.8868289"
         id="rect4027-3-7"
         transform="scale(-1,1)" />
      <rect
         style="fill:#fefefe;fill-opacity:1"
         x="-86.534286"
         y="1024.0231"
         width="3.0441377"
         height="3.8868289"
         id="rect4029-9-6"
         transform="scale(-1,1)" />
      <rect
         style="fill:#fefefe;fill-opacity:1"
         x="-78.72924"
         y="1024.0231"
         width="3.9026647"
         height="3.8868289"
         id="rect4031-6-7"
         transform="scale(-1,1)" />
      <rect
         style="fill:#fefefe;fill-opacity:1"
         x="-86.546509"
         y="1016.2454"
         width="3.9339592"
         height="15.565912"
         id="rect4033-4-3"
         transform="scale(-1,1)" />
      <rect
         style="fill:#fefefe;fill-opacity:1"
         x="-78.72924"
         y="1020.1253"
         width="3.9026647"
         height="3.8872354"
         id="rect4035-9-6"
         transform="scale(-1,1)" />
      <rect
         style="fill:#fefefe;fill-opacity:1"
         x="-86.487602"
         y="1016.2396"
         width="11.649043"
         height="3.8857453"
         id="rect4037-9-3"
         transform="scale(-1,1)" />
      <rect
         style="fill:#fefefe;fill-opacity:1"
         x="-86.505096"
         y="1016.2396"
         width="9.4797764"
         height="3.8857453"
         id="rect4039-6-3"
         transform="scale(-1,1)" />
      <rect
         style="fill:#fefefe;fill-opacity:1"
         x="-78.72924"
         y="1016.2396"
         width="3.9026647"
         height="14.191314"
         id="rect4041-6-7"
         transform="scale(-1,1)" />
      <polygon
         style="fill:#cd0037;fill-opacity:1"
         transform="matrix(0.13614736,0,0,0.13542485,104.63186,1014.4007)"
         points="68.12,98.034 39.394,98.034 39.394,69.367 39.394,40.698 68.12,40.698 96.785,40.698 96.785,11.993 68.12,11.993 39.394,11.993 10.729,11.993 10.729,40.698 10.729,69.367 10.729,98.034 10.729,126.734 39.394,126.734 68.12,126.734 96.785,126.734 96.785,98.034 "
         id="polygon3955-8-8" />
      <path
         style="fill:#cd0037;fill-opacity:1"
         inkscape:connector-curvature="0"
         d="m 125.6142,1016.0249 h -3.90266 v 3.8873 3.8826 3.8822 3.8866 h 3.90266 v -3.8866 h 3.91111 v -3.877 h 3.90267 v -3.8878 l 0,0 v -3.8873 h -3.90267 -3.91111 z m 3.91097,3.8873 v 3.8775 h -3.91111 v -3.8775 h 3.91111 l 0,0 z"
         id="path3957-0-8" />
      <rect
         style="fill:#cd0037;fill-opacity:1"
         x="129.52518"
         y="1027.677"
         width="3.9026647"
         height="3.8866937"
         id="rect3959-8-8" />
      <polygon
         style="fill:#cd0037;fill-opacity:1"
         transform="matrix(0.13614736,0,0,0.13542485,104.63186,1014.4007)"
         points="326.229,11.993 297.564,11.993 297.564,40.698 297.564,69.33 268.899,69.33 268.899,40.665 268.838,40.665 268.838,11.993 240.173,11.993 240.173,40.665 240.173,40.698 240.173,69.33 240.173,98.034 268.838,98.034 268.899,98.034 297.564,98.034 297.564,126.734 326.229,126.734 326.229,98.034 326.229,69.367 326.229,40.698 "
         id="polygon3961-1-4" />
      <path
         style="fill:#cd0037;fill-opacity:1"
         inkscape:connector-curvature="0"
         d="m 156.85186,1016.0249 h -3.90211 v 3.8873 3.8826 3.8822 3.8866 h 3.90211 v -3.8866 h 3.91178 3.90268 v -3.8873 -3.8775 0 -3.8829 h -3.90268 -3.91178 z m 3.91178,7.7648 h -3.91178 v -3.8775 h 3.91178 v 3.8775 z"
         id="path3963-4-4" />
      <polygon
         style="fill:#cd0037;fill-opacity:1"
         transform="matrix(0.13614736,0,0,0.13542485,104.63186,1014.4007)"
         points="555.68,11.993 527.007,11.993 498.294,11.993 469.621,11.993 469.621,40.698 498.294,40.698 498.338,40.698 498.338,69.367 498.338,98.034 498.338,126.734 527.007,126.734 527.007,98.034 527.007,69.367 527.007,40.698 555.68,40.698 "
         id="polygon3965-5-6" />
      <rect
         style="fill:#cd0037;fill-opacity:1"
         x="188.27455"
         y="1027.5669"
         width="3.9026647"
         height="3.8872354"
         id="rect3979-4-3" />
      <rect
         style="fill:#cd0037;fill-opacity:1"
         x="184.35332"
         y="1027.6031"
         width="11.726562"
         height="3.8866937"
         id="rect3983-2-1" />
      <rect
         style="fill:#cd0037;fill-opacity:1"
         x="184.37187"
         y="1027.6031"
         width="3.9025283"
         height="3.8866937"
         id="rect3985-6-5" />
      <rect
         style="fill:#cd0037;fill-opacity:1"
         x="192.1772"
         y="1015.9226"
         width="3.9026647"
         height="15.530535"
         id="rect3997-0-4" />
      <rect
         style="fill:#cd0037;fill-opacity:1"
         x="184.37187"
         y="1023.7051"
         width="3.9025283"
         height="3.8873703"
         id="rect3999-8-8" />
      <rect
         style="fill:#cd0037;fill-opacity:1"
         x="192.1772"
         y="1019.8022"
         width="3.9026647"
         height="3.8869641"
         id="rect4001-8-7" />
      <rect
         style="fill:#cd0037;fill-opacity:1"
         x="184.37187"
         y="1019.8022"
         width="3.9025283"
         height="3.8869641"
         id="rect4003-3-1" />
      <rect
         style="fill:#cd0037;fill-opacity:1"
         x="184.38388"
         y="1015.9152"
         width="11.695998"
         height="3.8872354"
         id="rect4005-4-7" />
      <rect
         style="fill:#cd0037;fill-opacity:1"
         x="188.27455"
         y="1015.9152"
         width="3.9026647"
         height="3.8872354"
         id="rect4007-5-9" />
      <rect
         style="fill:#cd0037;fill-opacity:1"
         x="184.37187"
         y="1015.9152"
         width="3.9025283"
         height="15.530398"
         id="rect4009-6-9" />
      <path
         style="fill:#cd0037;fill-opacity:1"
         inkscape:connector-curvature="0"
         d="m 219.85235,1016.0079 h -3.90265 v 3.8802 3.8819 3.8886 3.8859 h 3.90265 v -3.8859 h 3.91125 v 3.8859 h 3.90279 v -3.8859 -3.8887 -3.8818 -3.8802 h -3.90279 -3.91125 l 0,0 z m 3.91125,7.7623 h -3.91125 v -3.882 h 3.91125 v 3.882 z"
         id="path3967-3" />
      <path
         style="fill:#cd0037;fill-opacity:1"
         inkscape:connector-curvature="0"
         d="M 204.23394,1016.0079 H 200.331 v 3.8802 3.8819 3.8886 3.8859 h 3.90294 v -3.8859 h 3.90989 3.9032 v -3.8887 -3.8818 -0.01 -3.8751 h -3.9032 -3.90989 z m 3.90989,7.7623 h -3.90989 v -3.882 h 3.90989 v 3.882 z"
         id="path3969-8" />
      <polygon
         style="fill:#cd0037;fill-opacity:1"
         transform="matrix(0.13614736,0,0,0.13542485,167.32425,994.96246)"
         points="672.658,155.403 643.993,155.403 615.265,155.403 586.6,155.403 586.6,184.056 615.265,184.056 615.328,184.056 615.328,212.721 615.328,241.435 615.328,270.13 643.993,270.13 643.993,241.435 643.993,212.721 643.993,184.056 672.658,184.056 "
         id="polygon3971-2" />
      <path
         style="fill:#cd0037;fill-opacity:1"
         inkscape:connector-curvature="0"
         d="m 235.47213,1016.0079 h -3.90252 v 3.8802 3.8819 3.8886 3.8859 h 3.90252 v -3.8859 h 3.91084 v -3.8832 h 3.90266 v -3.8818 -0.01 -3.8801 h -3.90266 -3.91084 z m 3.91084,3.8857 v 3.8766 h -3.91084 v -3.882 h 3.91084 v 0.01 z"
         id="path3973-9" />
      <rect
         style="fill:#cd0037;fill-opacity:1"
         x="239.38297"
         y="1027.6587"
         width="3.9026647"
         height="3.8858809"
         id="rect3975-1" />
      <polygon
         style="fill:#cd0037;fill-opacity:1"
         transform="matrix(0.13614736,0,0,0.13542485,167.32425,994.96246)"
         points="787.377,184.056 787.377,155.403 758.712,155.403 758.712,184.056 758.712,212.721 730.047,212.721 730.047,184.018 729.988,184.018 729.988,155.403 701.323,155.403 701.323,184.018 701.323,184.056 701.323,212.721 701.323,241.435 729.988,241.435 730.047,241.435 758.712,241.435 758.712,270.13 787.377,270.13 787.377,241.435 787.377,212.721 "
         id="polygon3977-4" />
      <rect
         style="fill:#ffffff;fill-opacity:1"
         x="-301.91479"
         y="1027.5781"
         width="3.9026647"
         height="3.8872354"
         id="rect3979-1-1"
         transform="scale(-1,1)" />
      <rect
         style="fill:#ffffff;fill-opacity:1"
         x="-290.20679"
         y="1023.9056"
         width="3.9026647"
         height="7.5954819"
         id="rect3981-1-3"
         transform="scale(-1,1)" />
      <rect
         style="fill:#ffffff;fill-opacity:1"
         x="-298.01212"
         y="1016.0018"
         width="3.9026647"
         height="15.499459"
         id="rect3983-3-8"
         transform="scale(-1,1)" />
      <rect
         style="fill:#ffffff;fill-opacity:1"
         x="-305.81747"
         y="1027.6145"
         width="11.665299"
         height="3.8866937"
         id="rect3985-1-7"
         transform="scale(-1,1)" />
      <rect
         style="fill:#ffffff;fill-opacity:1"
         x="-290.20679"
         y="1023.7163"
         width="3.9026647"
         height="3.8873703"
         id="rect3987-5-3"
         transform="scale(-1,1)" />
      <rect
         style="fill:#ffffff;fill-opacity:1"
         x="-294.10947"
         y="1023.7163"
         width="3.9026647"
         height="3.8873703"
         id="rect3989-8-5"
         transform="scale(-1,1)" />
      <rect
         style="fill:#ffffff;fill-opacity:1"
         x="-282.40854"
         y="1023.7232"
         width="3.9026647"
         height="7.7778811"
         id="rect3991-8-9"
         transform="scale(-1,1)" />
      <rect
         style="fill:#ffffff;fill-opacity:1"
         x="-282.40854"
         y="1023.7163"
         width="3.9026647"
         height="3.8873703"
         id="rect3993-8-0"
         transform="scale(-1,1)" />
      <rect
         style="fill:#ffffff;fill-opacity:1"
         x="-286.31119"
         y="1023.7163"
         width="3.9026647"
         height="3.8873703"
         id="rect3995-6-7"
         transform="scale(-1,1)" />
      <rect
         style="fill:#ffffff;fill-opacity:1"
         x="-298.01212"
         y="1023.7163"
         width="19.397646"
         height="3.8873703"
         id="rect3997-6-0"
         transform="scale(-1,1)" />
      <rect
         style="fill:#ffffff;fill-opacity:1"
         x="-305.81747"
         y="1015.9643"
         width="3.9025283"
         height="15.469735"
         id="rect3999-3-6"
         transform="scale(-1,1)" />
      <rect
         style="fill:#ffffff;fill-opacity:1"
         x="-298.01212"
         y="1019.8137"
         width="3.9026647"
         height="3.8869641"
         id="rect4001-3-5"
         transform="scale(-1,1)" />
      <rect
         style="fill:#ffffff;fill-opacity:1"
         x="-305.81747"
         y="1019.8137"
         width="3.9025283"
         height="3.8869641"
         id="rect4003-39-2"
         transform="scale(-1,1)" />
      <rect
         style="fill:#ffffff;fill-opacity:1"
         x="-298.01212"
         y="1015.9266"
         width="3.9026647"
         height="3.8872354"
         id="rect4005-0-5"
         transform="scale(-1,1)" />
      <rect
         style="fill:#ffffff;fill-opacity:1"
         x="-301.91479"
         y="1015.9266"
         width="3.9026647"
         height="3.8872354"
         id="rect4007-1-7"
         transform="scale(-1,1)" />
      <rect
         style="fill:#ffffff;fill-opacity:1"
         x="-305.81747"
         y="1015.9266"
         width="11.695863"
         height="3.8872354"
         id="rect4009-8-6"
         transform="scale(-1,1)" />
      <flowRoot
         transform="matrix(0.315931,0,0,0.3125795,39.35261,673.66713)"
         style="font-size:20px;font-style:normal;font-variant:normal;font-weight:bold;font-stretch:normal;text-align:start;line-height:125%;letter-spacing:18.03458786px;word-spacing:0px;writing-mode:lr-tb;text-anchor:start;fill:#ffffff;fill-opacity:1;stroke:none;font-family:Monospace;-inkscape-font-specification:Monospace Bold"
         id="flowRoot3118"
         xml:space="preserve"><flowRegion
           id="flowRegion3120"><rect
             ry="0"
             style="font-size:20px;font-style:normal;font-variant:normal;font-weight:bold;font-stretch:normal;text-align:start;line-height:125%;letter-spacing:18.03458786px;writing-mode:lr-tb;text-anchor:start;fill:#ffffff;fill-opacity:1;font-family:Monospace;-inkscape-font-specification:Monospace Bold"
             y="1154.8386"
             x="111.11678"
             height="199.3797"
             width="767.36401"
             id="rect3122" /></flowRegion><flowPara
           id="flowPara4024">www.cryptoparty.in/athens</flowPara></flowRoot>    </g>
  </g>
</svg>
