<?xml version="1.0" encoding="UTF-8" standalone="no"?>
<!-- Created with Inkscape (http://www.inkscape.org/) -->

<svg
   xmlns:dc="http://purl.org/dc/elements/1.1/"
   xmlns:cc="http://creativecommons.org/ns#"
   xmlns:rdf="http://www.w3.org/1999/02/22-rdf-syntax-ns#"
   xmlns:svg="http://www.w3.org/2000/svg"
   xmlns="http://www.w3.org/2000/svg"
   xmlns:sodipodi="http://sodipodi.sourceforge.net/DTD/sodipodi-0.dtd"
   xmlns:inkscape="http://www.inkscape.org/namespaces/inkscape"
   width="191.33858"
   height="269.29132"
   id="svg2"
   version="1.1"
   inkscape:version="0.91 r13725"
   sodipodi:docname="global_gpgtorotrwtf.svg"
   inkscape:export-filename="/media/shiro/Octopus/cryptoparty/pgptorotrftw_def.png"
   inkscape:export-xdpi="600"
   inkscape:export-ydpi="600">
  <defs
     id="defs4" />
  <sodipodi:namedview
     id="base"
     pagecolor="#ffffff"
     bordercolor="#666666"
     borderopacity="1.0"
     inkscape:pageopacity="1"
     inkscape:pageshadow="2"
     inkscape:zoom="1.754102"
     inkscape:cx="87.641738"
     inkscape:cy="110.05646"
     inkscape:document-units="px"
     inkscape:current-layer="g3163"
     showgrid="false"
     showguides="true"
     inkscape:guide-bbox="true"
     inkscape:window-width="1366"
     inkscape:window-height="744"
     inkscape:window-x="0"
     inkscape:window-y="24"
     inkscape:window-maximized="1"
     width="100px"
     units="cm">
    <sodipodi:guide
       orientation="0,1"
       position="-82.093286,-230.31728"
       id="guide4196" />
    <sodipodi:guide
       orientation="1,0"
       position="-343.19555,90.074578"
       id="guide4214" />
    <sodipodi:guide
       orientation="1,0"
       position="-458.35418,-230.31728"
       id="guide4216" />
    <sodipodi:guide
       orientation="0,1"
       position="-82.093286,-230.31728"
       id="guide4224" />
    <sodipodi:guide
       orientation="0,1"
       position="970.70359,-351.51725"
       id="guide4260" />
    <sodipodi:guide
       orientation="1,0"
       position="-149.95919,264.44417"
       id="guide4330" />
    <sodipodi:guide
       orientation="1,0"
       position="-72.560899,241.86966"
       id="guide4397" />
    <sodipodi:guide
       orientation="0,1"
       position="970.70359,-351.51725"
       id="guide4549" />
    <sodipodi:guide
       orientation="1,0"
       position="-149.95919,225.74502"
       id="guide4575" />
  </sodipodi:namedview>
  <metadata
     id="metadata7">
    <rdf:RDF>
      <cc:Work
         rdf:about="">
        <dc:format>image/svg+xml</dc:format>
        <dc:type
           rdf:resource="http://purl.org/dc/dcmitype/StillImage" />
        <dc:title></dc:title>
      </cc:Work>
    </rdf:RDF>
  </metadata>
  <g
     inkscape:label="Layer 1"
     inkscape:groupmode="layer"
     id="layer1"
     transform="translate(0,-783.07064)"
     sodipodi:insensitive="true">
    <rect
       style="fill:#000000;fill-opacity:1;fill-rule:evenodd;stroke:#000000;stroke-width:2.3569212;stroke-miterlimit:4;stroke-opacity:1;stroke-dasharray:none"
       id="rect4733"
       width="190.82578"
       height="270.08295"
       x="1.0158519"
       y="781.77875" />
  </g>
  <g
     inkscape:groupmode="layer"
     id="layer2"
     inkscape:label="Layer"
     style="display:inline"
     transform="translate(0,-783.07064)" />
  <g
     inkscape:groupmode="layer"
     id="layer3"
     inkscape:label="Layer#1"
     transform="translate(0,-783.07064)" />
  <flowRoot
     xml:space="preserve"
     id="flowRoot4232"
     style="font-size:40px;font-style:normal;font-weight:normal;line-height:125%;letter-spacing:0px;word-spacing:0px;fill:#000000;fill-opacity:1;stroke:none;font-family:Sans"
     transform="translate(0,-783.07064)"><flowRegion
       id="flowRegion4234"><rect
         id="rect4236"
         width="610.31781"
         height="138.67194"
         x="69.335968"
         y="1207.965" /></flowRegion><flowPara
       id="flowPara4238" /></flowRoot>  <text
     xml:space="preserve"
     style="font-size:40px;font-style:normal;font-weight:normal;line-height:125%;letter-spacing:0px;word-spacing:0px;fill:#000000;fill-opacity:1;stroke:none;font-family:Sans"
     x="480.5144"
     y="604.6839"
     id="text4256"
     sodipodi:linespacing="125%"><tspan
       sodipodi:role="line"
       id="tspan4258"
       x="480.5144"
       y="604.6839" /></text>
  <g
     id="g3163"
     transform="matrix(1.0920207,0,0,1.0920207,-4.934193,-11.156404)">
    <g
       id="g3084">
      <flowRoot
         xml:space="preserve"
         id="flowRoot3756"
         style="font-style:normal;font-variant:normal;font-weight:bold;font-stretch:normal;font-size:100px;line-height:80.00000119%;font-family:'Liberation Mono';-inkscape-font-specification:'Liberation Mono Bold';text-align:start;letter-spacing:0px;word-spacing:0px;writing-mode:lr-tb;text-anchor:start;display:inline;fill:#ffffff;fill-opacity:1;stroke:none"
         transform="matrix(0.67502576,0,0,0.67502576,-35.175041,17.31123)"><flowRegion
           id="flowRegion3758"><rect
             id="rect3760"
             width="542.85712"
             height="824.28571"
             x="97.14286"
             y="12.362182"
             style="font-style:normal;font-variant:normal;font-weight:bold;font-stretch:normal;font-size:100px;line-height:80.00000119%;font-family:'Liberation Mono';-inkscape-font-specification:'Liberation Mono Bold';text-align:start;writing-mode:lr-tb;text-anchor:start;fill:#ffffff;fill-opacity:1" /></flowRegion><flowPara
           id="flowPara3077">GPG</flowPara><flowPara
           id="flowPara3079">TOR</flowPara><flowPara
           id="flowPara3081">OTR</flowPara><flowPara
           id="flowPara3083">WTF</flowPara></flowRoot>      <g
         id="g3076"
         transform="matrix(0.21685427,0,0,0.21685427,11.447779,24.35844)">
        <rect
           transform="scale(-1,1)"
           id="rect4011-1"
           height="9.1096697"
           width="9.0998297"
           y="1016.735"
           x="-84.318306"
           style="fill:#ff0098" />
        <rect
           transform="scale(-1,1)"
           id="rect4013-0"
           height="11.745712"
           width="9.1011"
           y="1014.184"
           x="-111.6184"
           style="fill:#ff0098" />
        <rect
           ry="0"
           transform="scale(-1,1)"
           id="rect4015-4"
           height="9.1090355"
           width="27.315746"
           y="1016.8207"
           x="-93.41748"
           style="fill:#ff0098" />
        <rect
           transform="scale(-1,1)"
           id="rect4017-7"
           height="9.1090355"
           width="9.0998297"
           y="1016.8207"
           x="-75.21846"
           style="fill:#ff0098" />
        <rect
           transform="scale(-1,1)"
           id="rect4019-3"
           height="9.1112576"
           width="9.1011"
           y="1007.6701"
           x="-111.6184"
           style="fill:#ff0098" />
        <rect
           transform="scale(-1,1)"
           id="rect4021-2"
           height="9.1112576"
           width="9.0998297"
           y="1007.6701"
           x="-102.51731"
           style="fill:#ff0098" />
        <rect
           transform="scale(-1,1)"
           id="rect4023-3"
           height="11.17562"
           width="9.0995121"
           y="1014.7541"
           x="-129.80061"
           style="fill:#ff0098" />
        <rect
           transform="scale(-1,1)"
           id="rect4025-8"
           height="9.1112576"
           width="38.67305"
           y="1007.6701"
           x="-129.80061"
           style="fill:#ff0098" />
        <rect
           transform="scale(-1,1)"
           id="rect4027-3"
           height="9.1112576"
           width="9.1023693"
           y="1007.6701"
           x="-120.70141"
           style="fill:#ff0098" />
        <rect
           transform="scale(-1,1)"
           id="rect4029-9"
           height="9.1112576"
           width="9.0991945"
           y="1007.6701"
           x="-93.41748"
           style="fill:#ff0098" />
        <rect
           transform="scale(-1,1)"
           id="rect4031-6"
           height="9.1112576"
           width="9.0998297"
           y="1007.6701"
           x="-75.21846"
           style="fill:#ff0098" />
        <rect
           transform="scale(-1,1)"
           id="rect4033-4"
           height="36.405376"
           width="9.0991945"
           y="989.41168"
           x="-93.41748"
           style="fill:#ff0098" />
        <rect
           transform="scale(-1,1)"
           id="rect4035-9"
           height="9.1122103"
           width="9.0998297"
           y="998.53314"
           x="-75.21846"
           style="fill:#ff0098" />
        <rect
           transform="scale(-1,1)"
           id="rect4037-9"
           height="9.1087179"
           width="27.270885"
           y="989.42438"
           x="-93.41748"
           style="fill:#ff0098" />
        <rect
           transform="scale(-1,1)"
           id="rect4039-6"
           height="9.1087179"
           width="9.0998297"
           y="989.42438"
           x="-84.318306"
           style="fill:#ff0098" />
        <rect
           transform="scale(-1,1)"
           id="rect4041-6"
           height="33.266376"
           width="9.0998297"
           y="989.42438"
           x="-75.21846"
           style="fill:#ff0098" />
        <polygon
           id="polygon3955-8"
           points="68.12,126.734 96.785,126.734 96.785,98.034 68.12,98.034 39.394,98.034 39.394,69.367 39.394,40.698 68.12,40.698 96.785,40.698 96.785,11.993 68.12,11.993 39.394,11.993 10.729,11.993 10.729,40.698 10.729,69.367 10.729,98.034 10.729,126.734 39.394,126.734 "
           transform="matrix(0.31745436,0,0,0.31745436,135.61551,985.11402)"
           style="fill:#d900ff" />
        <path
           id="path3957-0"
           d="m 184.53998,988.92125 h -9.09982 v 9.11253 9.10112 9.1004 9.1109 h 9.09982 v -9.1109 h 9.11951 v -9.088 h 9.09983 v -9.11352 l 0,0 v -9.11253 h -9.09983 -9.11951 z m 9.1192,9.11253 v 9.08932 h -9.11952 v -9.08932 h 9.11952 l 0,0 z"
           inkscape:connector-curvature="0"
           style="fill:#d900ff" />
        <rect
           id="rect3959-8"
           height="9.1109409"
           width="9.0998297"
           y="1016.2354"
           x="193.65918"
           style="fill:#d900ff" />
        <polygon
           id="polygon3961-1"
           points="326.229,98.034 326.229,69.367 326.229,40.698 326.229,11.993 297.564,11.993 297.564,40.698 297.564,69.33 268.899,69.33 268.899,40.665 268.838,40.665 268.838,11.993 240.173,11.993 240.173,40.665 240.173,40.698 240.173,69.33 240.173,98.034 268.838,98.034 268.899,98.034 297.564,98.034 297.564,126.734 326.229,126.734 "
           transform="matrix(0.31745436,0,0,0.31745436,135.61551,985.11402)"
           style="fill:#d900ff" />
        <path
           id="path3963-4"
           d="m 257.37672,988.92125 h -9.09856 v 9.11253 9.10112 9.1004 9.1109 h 9.09856 v -9.1109 h 9.1211 9.09982 v -9.1122 -9.08932 -0.0105 -9.10205 h -9.09982 -9.1211 z m 9.1211,18.20185 h -9.1211 v -9.08932 h 9.1211 v 9.08932 z"
           inkscape:connector-curvature="0"
           style="fill:#d900ff" />
        <polygon
           id="polygon3965-5"
           points="498.338,40.698 498.338,69.367 498.338,98.034 498.338,126.734 527.007,126.734 527.007,98.034 527.007,69.367 527.007,40.698 555.68,40.698 555.68,11.993 527.007,11.993 498.294,11.993 469.621,11.993 469.621,40.698 498.294,40.698 "
           transform="matrix(0.31745436,0,0,0.31745436,135.61551,985.11402)"
           style="fill:#d900ff" />
        <rect
           id="rect3979-4"
           height="9.1122103"
           width="9.0998297"
           y="1015.9773"
           x="330.6449"
           style="fill:#d900ff;fill-opacity:1" />
        <rect
           id="rect3983-2"
           height="9.1109409"
           width="27.342783"
           y="1016.0623"
           x="321.50174"
           style="fill:#d900ff;fill-opacity:1" />
        <rect
           id="rect3985-6"
           height="9.1109409"
           width="9.0995121"
           y="1016.0623"
           x="321.54504"
           style="fill:#d900ff;fill-opacity:1" />
        <rect
           id="rect3997-0"
           height="36.405693"
           width="9.0998297"
           y="988.68164"
           x="339.74469"
           style="fill:#d900ff;fill-opacity:1" />
        <rect
           id="rect3999-8"
           height="9.1125269"
           width="9.0995121"
           y="1006.9246"
           x="321.54504"
           style="fill:#d900ff;fill-opacity:1" />
        <rect
           id="rect4001-8"
           height="9.1115751"
           width="9.0998297"
           y="997.77594"
           x="339.74469"
           style="fill:#d900ff;fill-opacity:1" />
        <rect
           id="rect4003-3"
           height="9.1115751"
           width="9.0995121"
           y="997.77594"
           x="321.54504"
           style="fill:#d900ff;fill-opacity:1" />
        <rect
           id="rect4005-4"
           height="9.1122103"
           width="27.271521"
           y="988.66406"
           x="321.573"
           style="fill:#d900ff;fill-opacity:1" />
        <rect
           id="rect4007-5"
           height="9.1122103"
           width="9.0998297"
           y="988.66406"
           x="330.6449"
           style="fill:#d900ff;fill-opacity:1" />
        <rect
           id="rect4009-6"
           height="36.405376"
           width="9.0995121"
           y="988.66406"
           x="321.54504"
           style="fill:#d900ff;fill-opacity:1" />
        <path
           id="path3967"
           d="m 404.27476,988.8814 h -9.09983 v 9.0957 9.0998 9.1154 9.109 h 9.09983 v -9.109 h 9.11983 v 9.109 h 9.10014 v -9.109 -9.1157 -9.0995 -9.0957 h -9.10014 -9.11983 l 0,0 z m 9.11983,18.1959 h -9.11983 v -9.09988 h 9.11983 v 9.09988 z"
           inkscape:connector-curvature="0"
           style="fill:#d900ff" />
        <path
           id="path3969"
           d="m 367.85735,988.8814 h -9.10047 v 9.0957 9.0998 9.1154 9.109 h 9.10047 v -9.109 h 9.11665 9.1011 v -9.1157 -9.0995 -0.012 -9.08364 h -9.1011 -9.11665 z m 9.11665,18.1959 h -9.11665 v -9.09988 h 9.11665 v 9.09988 z"
           inkscape:connector-curvature="0"
           style="fill:#d900ff" />
        <polygon
           id="polygon3971"
           points="615.328,184.056 615.328,212.721 615.328,241.435 615.328,270.13 643.993,270.13 643.993,241.435 643.993,212.721 643.993,184.056 672.658,184.056 672.658,155.403 643.993,155.403 615.265,155.403 586.6,155.403 586.6,184.056 615.265,184.056 "
           transform="matrix(0.31745436,0,0,0.31745436,281.79515,939.54805)"
           style="fill:#d900ff" />
        <path
           id="path3973"
           d="m 440.69535,988.8814 h -9.09952 v 9.0957 9.0998 9.1154 9.109 h 9.09952 v -9.109 h 9.11887 v -9.1026 h 9.09984 v -9.09958 -0.0127 -9.09569 h -9.09984 -9.11887 z m 9.11887,9.10872 v 9.08718 h -9.11887 v -9.09988 h 9.11887 v 0.0127 z"
           inkscape:connector-curvature="0"
           style="fill:#d900ff" />
        <rect
           id="rect3975"
           height="9.1090355"
           width="9.0998297"
           y="1016.1926"
           x="449.81424"
           style="fill:#d900ff" />
        <polygon
           id="polygon3977"
           points="787.377,270.13 787.377,241.435 787.377,212.721 787.377,184.056 787.377,155.403 758.712,155.403 758.712,184.056 758.712,212.721 730.047,212.721 730.047,184.018 729.988,184.018 729.988,155.403 701.323,155.403 701.323,184.018 701.323,184.056 701.323,212.721 701.323,241.435 729.988,241.435 730.047,241.435 758.712,241.435 758.712,270.13 "
           transform="matrix(0.31745436,0,0,0.31745436,281.79515,939.54805)"
           style="fill:#d900ff" />
        <rect
           id="rect3975-7"
           height="9.1090355"
           width="9.0998297"
           y="1016.2081"
           x="541.01349"
           style="fill:#d900ff" />
        <rect
           id="rect3983-2-8"
           height="9.1109409"
           width="9.0998297"
           y="1016.2354"
           x="559.24298"
           style="fill:#d900ff;fill-opacity:1" />
        <rect
           id="rect3997-0-6"
           height="18.09148"
           width="9.0998297"
           y="1007.0977"
           x="559.24298"
           style="fill:#d900ff;fill-opacity:1" />
        <rect
           id="rect4005-4-9"
           height="9.1122103"
           width="9.0998297"
           y="988.8371"
           x="559.24298"
           style="fill:#d900ff;fill-opacity:1" />
        <rect
           id="rect3983-2-2"
           height="36.047802"
           width="9.0998297"
           y="989.4715"
           x="577.58624"
           style="fill:#d900ff;fill-opacity:1" />
        <rect
           id="rect3997-0-69"
           height="9.1125269"
           width="9.0998297"
           y="1007.2708"
           x="577.58624"
           style="fill:#d900ff;fill-opacity:1" />
        <rect
           id="rect4001-8-1"
           height="9.1115751"
           width="9.0998297"
           y="998.12207"
           x="577.58624"
           style="fill:#d900ff;fill-opacity:1" />
        <rect
           id="rect4005-4-1"
           height="9.1122103"
           width="9.0998297"
           y="988.95123"
           x="595.77118"
           style="fill:#d900ff;fill-opacity:1" />
        <rect
           id="rect4007-5-5"
           height="9.1122103"
           width="23.56592"
           y="988.95123"
           x="580.61414"
           style="fill:#d900ff;fill-opacity:1" />
        <rect
           id="rect4009-6-6"
           height="9.1122103"
           width="9.0995121"
           y="988.95123"
           x="577.57153"
           style="fill:#d900ff;fill-opacity:1" />
        <rect
           id="rect3983-2-2-2"
           height="36.40411"
           width="9.0998297"
           y="989.05853"
           x="595.75647"
           style="fill:#d900ff;fill-opacity:1" />
        <rect
           id="rect3997-0-69-1"
           height="9.1125269"
           width="9.0998297"
           y="1007.2141"
           x="595.75647"
           style="fill:#d900ff;fill-opacity:1" />
        <rect
           id="rect4001-8-1-3"
           height="9.1115751"
           width="9.0998297"
           y="998.06531"
           x="595.75647"
           style="fill:#d900ff;fill-opacity:1" />
        <rect
           transform="scale(-1,1)"
           id="rect3979-1"
           height="9.1122103"
           width="9.0998297"
           y="1016.1504"
           x="-668.87604"
           style="fill:#ff0098" />
        <rect
           transform="scale(-1,1)"
           id="rect3981-1"
           height="17.804848"
           width="9.0998297"
           y="1007.5415"
           x="-641.57654"
           style="fill:#ff0098" />
        <rect
           transform="scale(-1,1)"
           id="rect3983-3"
           height="36.332848"
           width="9.0998297"
           y="989.01349"
           x="-659.77618"
           style="fill:#ff0098" />
        <rect
           transform="scale(-1,1)"
           id="rect3985-1"
           height="9.1109409"
           width="27.199942"
           y="1016.2354"
           x="-677.97589"
           style="fill:#ff0098" />
        <rect
           transform="scale(-1,1)"
           id="rect3987-5"
           height="9.1125269"
           width="9.0998297"
           y="1007.0977"
           x="-641.57654"
           style="fill:#ff0098" />
        <rect
           transform="scale(-1,1)"
           id="rect3989-8"
           height="9.1125269"
           width="9.0998297"
           y="1007.0977"
           x="-650.67639"
           style="fill:#ff0098" />
        <rect
           transform="scale(-1,1)"
           id="rect3991-8"
           height="18.232416"
           width="9.0998297"
           y="1007.1139"
           x="-623.39337"
           style="fill:#ff0098" />
        <rect
           transform="scale(-1,1)"
           id="rect3993-8"
           height="9.1125269"
           width="9.0998297"
           y="1007.0977"
           x="-623.39337"
           style="fill:#ff0098" />
        <rect
           transform="scale(-1,1)"
           id="rect3995-6"
           height="9.1125269"
           width="9.0998297"
           y="1007.0977"
           x="-632.49316"
           style="fill:#ff0098" />
        <rect
           transform="scale(-1,1)"
           id="rect3997-6"
           height="9.1125269"
           width="45.229427"
           y="1007.0977"
           x="-659.77618"
           style="fill:#ff0098" />
        <rect
           transform="scale(-1,1)"
           id="rect3999-3"
           height="36.263172"
           width="9.0995121"
           y="988.92603"
           x="-677.97589"
           style="fill:#ff0098" />
        <rect
           transform="scale(-1,1)"
           id="rect4001-3"
           height="9.1115751"
           width="9.0998297"
           y="997.94904"
           x="-659.77618"
           style="fill:#ff0098" />
        <rect
           transform="scale(-1,1)"
           id="rect4003-39"
           height="9.1115751"
           width="9.0995121"
           y="997.94904"
           x="-677.97589"
           style="fill:#ff0098" />
        <rect
           transform="scale(-1,1)"
           id="rect4005-0"
           height="9.1122103"
           width="9.0998297"
           y="988.83716"
           x="-659.77618"
           style="fill:#ff0098" />
        <rect
           transform="scale(-1,1)"
           id="rect4007-1"
           height="9.1122103"
           width="9.0998297"
           y="988.83716"
           x="-668.87604"
           style="fill:#ff0098" />
        <rect
           transform="scale(-1,1)"
           id="rect4009-8"
           height="9.1122103"
           width="27.271204"
           y="988.83716"
           x="-677.97589"
           style="fill:#ff0098" />
      </g>
    </g>
  </g>
</svg>
